<?xml version="1.0" encoding="UTF-8"?>
<svg version="1.1" xmlns="http://www.w3.org/2000/svg" width="878" height="327">
<path d="M0 0 C289.74 0 579.48 0 878 0 C878 107.91 878 215.82 878 327 C588.26 327 298.52 327 0 327 C0 219.09 0 111.18 0 0 Z " fill="#34434B" transform="translate(0,0)"/>
<path d="M0 0 C233.64 0 467.28 0 708 0 C708 5.61 708 11.22 708 17 C703.72729867 17.71211689 700.16787307 18.13789201 695.91308594 18.18945312 C694.73035095 18.20617065 693.54761597 18.22288818 692.32904053 18.2401123 C690.42593109 18.26047546 690.42593109 18.26047546 688.484375 18.28125 C687.14600951 18.2993397 685.8076509 18.31794482 684.46929932 18.33703613 C680.22959197 18.39645249 675.98980996 18.44851849 671.75 18.5 C666.2030546 18.56809688 660.65617768 18.63983113 655.109375 18.71875 C654.43959059 18.72813599 653.76980618 18.73752197 653.07972527 18.74719238 C643.85559517 18.88121486 634.67131799 19.20252063 625.46630859 19.79492188 C621.2733038 20.04299372 617.13632131 20.06834297 612.9375 20 C610.62528613 19.96362299 608.31198635 19.95126247 606 20 C605.67 20.33 605.34 20.66 605 21 C603.0595464 20.93541607 601.12130184 20.79803668 599.1875 20.625 C598.12917969 20.53476563 597.07085938 20.44453125 595.98046875 20.3515625 C593 20 593 20 590.9296875 19.46875 C583.64444525 17.69905553 574.31999152 18.68932584 567 20 C565.515 20.99 565.515 20.99 564 22 C561.34301758 22.04345703 561.34301758 22.04345703 558.14453125 21.7578125 C556.97301514 21.66089111 555.80149902 21.56396973 554.59448242 21.46411133 C553.34642822 21.35220459 552.09837402 21.24029785 550.8125 21.125 C532.73293783 19.67758568 515.09857717 20.10553825 497 21 C497 21.33 497 21.66 497 22 C494.69 22 492.38 22 490 22 C490.33 22.99 490.66 23.98 491 25 C491.60473145 25.02505615 492.20946289 25.0501123 492.83251953 25.07592773 C495.5968562 25.19263006 498.36091366 25.31501734 501.125 25.4375 C502.07632812 25.47681641 503.02765625 25.51613281 504.0078125 25.55664062 C504.9359375 25.59853516 505.8640625 25.64042969 506.8203125 25.68359375 C508.09285889 25.73858032 508.09285889 25.73858032 509.39111328 25.79467773 C512.27979944 26.02202053 515.1418068 26.52363447 518 27 C518 31.95 518 36.9 518 42 C516.35 42 514.7 42 513 42 C513.33 43.98 513.66 45.96 514 48 C514.66 48 515.32 48 516 48 C516.24234375 48.65226562 516.4846875 49.30453125 516.734375 49.9765625 C518.99508786 55.93274563 518.99508786 55.93274563 522.25 61.375 C524 64 524 64 524 68 C524.66 68 525.32 68 526 68 C526.11730469 67.46890625 526.23460937 66.9378125 526.35546875 66.390625 C528.54857577 58.25619168 532.0670038 50.42899283 536 43 C534.68 43 533.36 43 532 43 C532 37.72 532 32.44 532 27 C544.54 27 557.08 27 570 27 C570 32.94 570 38.88 570 45 C568.35 46.65 566.7 48.3 565 50 C563.5942211 52.6210202 563.5942211 52.6210202 562.6875 55.3125 C562.36136719 56.19550781 562.03523437 57.07851562 561.69921875 57.98828125 C561.35310547 58.98408203 561.35310547 58.98408203 561 60 C560.34 60 559.68 60 559 60 C558.76023437 60.81984375 558.52046875 61.6396875 558.2734375 62.484375 C556.76045963 66.66130776 554.79235998 70.38274983 552.625 74.25 C552.04492188 75.32894531 552.04492188 75.32894531 551.453125 76.4296875 C551.06898438 77.11804688 550.68484375 77.80640625 550.2890625 78.515625 C549.94568848 79.13727539 549.60231445 79.75892578 549.24853516 80.39941406 C547.73542375 82.3391791 546.24484071 83.05436897 544 84 C544.32613281 84.64066406 544.65226563 85.28132813 544.98828125 85.94140625 C548.98378724 93.84991516 548.98378724 93.84991516 550.5 97.75 C551.74176342 100.4404874 552.67954273 101.96206949 554.5625 104.125 C556.9060648 106.88920464 557.71045899 108.69645673 559 112 C560.54199066 114.85228324 562.14667883 117.66286015 563.7578125 120.4765625 C565 123 565 123 565 126 C566.65 126 568.3 126 570 126 C570.03738281 127.20398438 570.07476563 128.40796875 570.11328125 129.6484375 C570.17892928 131.22399011 570.24537701 132.79950954 570.3125 134.375 C570.34633789 135.56609375 570.34633789 135.56609375 570.38085938 136.78125 C570.47785075 138.86215581 570.72994825 140.93441332 571 143 C571.99 143.66 572.98 144.32 574 145 C574 145.66 574 146.32 574 147 C574.99 147.33 575.98 147.66 577 148 C575.68 148.66 574.36 149.32 573 150 C573.99 150.33 574.98 150.66 576 151 C576 151.66 576 152.32 576 153 C619.56 153 663.12 153 708 153 C708 159.93 708 166.86 708 174 C474.36 174 240.72 174 0 174 C0 116.58 0 59.16 0 0 Z " fill="#33434B" transform="translate(83,74)"/>
<path d="M0 0 C181.83 0 363.66 0 551 0 C551 0.33 551 0.66 551 1 C550.26323029 1.01030746 549.52646057 1.02061493 548.7673645 1.03123474 C541.73859526 1.13023387 534.70988996 1.23286926 527.68123055 1.33933926 C524.06990089 1.39392205 520.45856288 1.44721944 516.84716797 1.49731445 C502.70156388 1.69432888 488.57491467 1.89251624 474.453125 2.79711914 C470.26480158 3.04319499 466.13156656 3.06826558 461.9375 3 C459.62528613 2.96362299 457.31198635 2.95126247 455 3 C454.67 3.33 454.34 3.66 454 4 C452.0595464 3.93541607 450.12130184 3.79803668 448.1875 3.625 C447.12917969 3.53476563 446.07085938 3.44453125 444.98046875 3.3515625 C442 3 442 3 439.9296875 2.46875 C432.64444525 0.69905553 423.31999152 1.68932584 416 3 C414.515 3.99 414.515 3.99 413 5 C410.34301758 5.04345703 410.34301758 5.04345703 407.14453125 4.7578125 C405.97301514 4.66089111 404.80149902 4.56396973 403.59448242 4.46411133 C402.34642822 4.35220459 401.09837402 4.24029785 399.8125 4.125 C381.73293783 2.67758568 364.09857717 3.10553825 346 4 C346 4.33 346 4.66 346 5 C343.69 5 341.38 5 339 5 C339.33 5.99 339.66 6.98 340 8 C346.93 8.33 353.86 8.66 361 9 C361 9.33 361 9.66 361 10 C349.78 10 338.56 10 327 10 C327 16.6 327 23.2 327 30 C328.65 30 330.3 30 332 30 C333.58764648 31.59741211 333.58764648 31.59741211 334.93359375 33.83984375 C335.43745605 34.66339355 335.94131836 35.48694336 336.46044922 36.33544922 C337.22252686 37.65440186 337.22252686 37.65440186 338 39 C338.50160645 39.85223145 339.00321289 40.70446289 339.52001953 41.58251953 C341.05752866 44.22992891 342.56424235 46.89270154 344.0625 49.5625 C347.28062008 55.27765052 350.51361681 60.93722333 354.11499023 66.42163086 C355 68 355 68 355 70 C354.14341797 70.82564453 354.14341797 70.82564453 353.26953125 71.66796875 C350.45082862 74.56429486 348.61598407 77.79833594 346.6875 81.3125 C346.30013672 82.01020508 345.91277344 82.70791016 345.51367188 83.42675781 C342.84760473 88.29265869 340.355767 93.22690286 338 98.25 C337.70955811 98.86915283 337.41911621 99.48830566 337.11987305 100.1262207 C335.78505515 103.04328419 334.62453844 105.8460809 334 109 C332.02 109 330.04 109 328 109 C328 114.61 328 120.22 328 126 C331.3 126 334.6 126 338 126 C336.68 127.32 335.36 128.64 334 130 C333.34 129.67 332.68 129.34 332 129 C332 128.34 332 127.68 332 127 C330.68 127 329.36 127 328 127 C325.66239242 130.71267087 326.0388915 131.19445748 327 136 C237.24 136 147.48 136 55 136 C54.67 135.01 54.34 134.02 54 133 C53.195625 132.690625 52.39125 132.38125 51.5625 132.0625 C49 131 49 131 47.6875 128.875 C47.460625 128.25625 47.23375 127.6375 47 127 C49.99282736 125.50358632 53.06278606 125.85777021 56.34375 125.8671875 C57.43109436 125.86575241 57.43109436 125.86575241 58.54040527 125.86428833 C60.07364997 125.86360757 61.60689755 125.86545464 63.14013672 125.86962891 C65.49062558 125.87497866 67.84092335 125.86968047 70.19140625 125.86328125 C71.67968792 125.86394205 73.16796948 125.86522325 74.65625 125.8671875 C75.36148804 125.86516327 76.06672607 125.86313904 76.79333496 125.86105347 C81.77007514 125.88503757 81.77007514 125.88503757 84 127 C83.67 126.34 83.34 125.68 83 125 C82.92818179 122.28239892 82.90700494 119.59140612 82.9375 116.875 C82.94201172 116.12089844 82.94652344 115.36679688 82.95117188 114.58984375 C82.96296501 112.72652873 82.98090058 110.86325445 83 109 C81.68 109 80.36 109 79 109 C78.05761702 104.69914505 77.11566411 100.39819618 76.17407227 96.09716797 C75.85517372 94.64076326 75.53616721 93.18438219 75.21704102 91.72802734 C74.75246679 89.607813 74.2883009 87.4875096 73.82421875 85.3671875 C73.67040741 84.66543396 73.51659607 83.96368042 73.35812378 83.24066162 C72.61690729 79.85200566 71.88360968 76.46205438 71.17041016 73.06738281 C69.95767517 67.30822726 68.72286084 61.62801209 67 56 C65.30622009 50.2449978 63.99827424 44.48268915 62.7890625 38.609375 C61.1997443 31.33942443 59.35328845 24.05986535 57 17 C56.96045766 14.66700175 56.95598268 12.33291811 57 10 C50.50241453 9.07950872 44.05454003 8.69985364 37.5 8.4375 C36.48679687 8.39431641 35.47359375 8.35113281 34.4296875 8.30664062 C31.9532321 8.20150808 29.47669251 8.09936163 27 8 C27 7.67 27 7.34 27 7 C30.63 6.67 34.26 6.34 38 6 C38 5.34 38 4.68 38 4 C25.35210155 2.13361957 12.76945698 1.43435929 0 1 C0 0.67 0 0.34 0 0 Z " fill="#33424A" transform="translate(234,91)"/>
<path d="M0 0 C233.64 0 467.28 0 708 0 C708 5.61 708 11.22 708 17 C477.99 17 247.98 17 11 17 C11 62.21 11 107.42 11 154 C241.01 154 471.02 154 708 154 C708 160.6 708 167.2 708 174 C474.36 174 240.72 174 0 174 C0 116.58 0 59.16 0 0 Z " fill="#F0EFDF" transform="translate(83,74)"/>
<path d="M0 0 C8.77182077 -0.27260131 17.54076961 -0.49207872 26.31589031 -0.62174606 C30.39197986 -0.6840253 34.46498981 -0.76826975 38.53930664 -0.90527344 C68.55096034 -1.88781276 68.55096034 -1.88781276 75.55375671 3.93890381 C77.05810668 5.52170281 78.38598595 7.13566764 79.68530273 8.88964844 C82.12993256 12.17459559 84.30261837 13.60030011 87.7734375 15.6875 C91.09913831 18.28776465 91.89866885 19.51493942 92.77441406 23.70703125 C93.10370491 28.1540725 92.87536869 32.5547748 92.625 37 C92.57476998 38.5532418 92.52915465 40.10664007 92.48828125 41.66015625 C92.37874715 45.44400529 92.20666465 49.22026247 92 53 C90.58603098 53.50757862 89.16868271 54.00574925 87.75 54.5 C86.96109375 54.7784375 86.1721875 55.056875 85.359375 55.34375 C83 56 83 56 79 56 C81.41478586 60.19962758 83.64786411 62.48359499 87.58984375 65.31640625 C91.67967265 68.90930916 92.71660294 71.40038992 93.1953125 76.80859375 C93.2190662 79.35155957 93.19436587 81.89536945 93.125 84.4375 C93.15980469 85.70916016 93.19460938 86.98082031 93.23046875 88.29101562 C93.17009632 94.76092811 92.7311484 99.10077865 88.1171875 103.84765625 C87.32581894 104.481875 86.53445038 105.11609375 85.71910095 105.76953125 C82.98608476 107.92977168 82.98608476 107.92977168 80.69319153 110.3510437 C74.77271917 116.07654249 69.94505262 117.94923801 61.86900043 117.92278862 C59.5629566 117.86569811 57.26140999 117.76384327 54.95703125 117.66015625 C53.3361674 117.62084939 51.71519964 117.58563577 50.09416199 117.55430603 C45.86240389 117.46167763 41.63434939 117.31413184 37.40466309 117.15441895 C33.07467967 117.00087633 28.74348649 116.90024041 24.41210938 116.79492188 C15.93936127 116.58121501 7.46979233 116.30937671 -1 116 C-1.02684312 113.18743719 -1.04676188 110.37512759 -1.0625 107.5625 C-1.07087891 106.76005859 -1.07925781 105.95761719 -1.08789062 105.13085938 C-1.0965143 103.08704779 -1.0522815 101.04316098 -1 99 C-0.505 98.505 -0.505 98.505 0 98 C2.31 98 4.62 98 7 98 C7 72.59 7 47.18 7 21 C4.69 20.67 2.38 20.34 0 20 C0 13.4 0 6.8 0 0 Z " fill="#F6F5E2" transform="translate(451,101)"/>
<path d="M0 0 C13.2 0 26.4 0 40 0 C40 4.95 40 9.9 40 15 C38.35 15 36.7 15 35 15 C35.495 17.97 35.495 17.97 36 21 C36.66 21 37.32 21 38 21 C38.24234375 21.65226562 38.4846875 22.30453125 38.734375 22.9765625 C40.99508786 28.93274563 40.99508786 28.93274563 44.25 34.375 C46 37 46 37 46 41 C46.66 41 47.32 41 48 41 C48.11730469 40.46890625 48.23460937 39.9378125 48.35546875 39.390625 C50.54857577 31.25619168 54.0670038 23.42899283 58 16 C56.68 16 55.36 16 54 16 C54 10.72 54 5.44 54 0 C66.54 0 79.08 0 92 0 C92 5.94 92 11.88 92 18 C90.35 19.65 88.7 21.3 87 23 C85.5942211 25.6210202 85.5942211 25.6210202 84.6875 28.3125 C84.36136719 29.19550781 84.03523437 30.07851562 83.69921875 30.98828125 C83.46847656 31.65214844 83.23773437 32.31601563 83 33 C82.34 33 81.68 33 81 33 C80.76023437 33.81984375 80.52046875 34.6396875 80.2734375 35.484375 C78.76045963 39.66130776 76.79235998 43.38274983 74.625 47.25 C74.23828125 47.96929687 73.8515625 48.68859375 73.453125 49.4296875 C73.06898438 50.11804688 72.68484375 50.80640625 72.2890625 51.515625 C71.94568848 52.13727539 71.60231445 52.75892578 71.24853516 53.39941406 C69.73542375 55.3391791 68.24484071 56.05436897 66 57 C66.32613281 57.64066406 66.65226563 58.28132813 66.98828125 58.94140625 C70.98378724 66.84991516 70.98378724 66.84991516 72.5 70.75 C73.74176342 73.4404874 74.67954273 74.96206949 76.5625 77.125 C78.9060648 79.88920464 79.71045899 81.69645673 81 85 C82.54199066 87.85228324 84.14667883 90.66286015 85.7578125 93.4765625 C87 96 87 96 87 99 C88.65 99 90.3 99 92 99 C92.495 107.415 92.495 107.415 93 116 C79.8 116 66.6 116 53 116 C53 111.38 53 106.76 53 102 C54.65 102 56.3 102 58 102 C56.92177933 99.78904188 55.83762596 97.58132694 54.75 95.375 C54.44964844 94.75753906 54.14929688 94.14007813 53.83984375 93.50390625 C50.5895005 86.17895004 50.5895005 86.17895004 45 81 C44.75507812 81.82757813 44.51015625 82.65515625 44.2578125 83.5078125 C42.80806511 87.53288756 40.9276949 91.13227714 38.875 94.875 C38.31619141 95.90753906 38.31619141 95.90753906 37.74609375 96.9609375 C36.83500474 98.64294798 35.91809685 100.32180436 35 102 C36.98 102 38.96 102 41 102 C41 106.62 41 111.24 41 116 C27.8 116 14.6 116 1 116 C1 110.39 1 104.78 1 99 C2.98 99 4.96 99 7 99 C7.09410156 97.99839844 7.18820312 96.99679688 7.28515625 95.96484375 C7.88916587 91.79330419 9.50367104 88.27530234 11.4375 84.5625 C11.78441895 83.88380859 12.13133789 83.20511719 12.48876953 82.50585938 C15.2474789 77.21438513 18.24510653 72.07956938 21.375 67 C21.80353271 66.2994751 22.23206543 65.5989502 22.67358398 64.87719727 C23.72427107 63.2133127 24.85499963 61.60044661 26 60 C26.66 60 27.32 60 28 60 C25.68949109 56.05265606 23.37826037 52.10573593 21.06640625 48.15917969 C20.28268688 46.82107523 19.49915302 45.4828621 18.71582031 44.14453125 C18.33780273 43.49871094 17.95978516 42.85289062 17.5703125 42.1875 C17.19505432 41.54617126 16.81979614 40.90484253 16.4331665 40.24407959 C15.68263886 38.96462257 14.92983973 37.6864952 14.17474365 36.409729 C12.50098551 33.57872944 10.86036625 30.74462662 9.28222656 27.85839844 C8.77916992 26.95379883 8.27611328 26.04919922 7.7578125 25.1171875 C7.33902832 24.33714355 6.92024414 23.55709961 6.48876953 22.75341797 C4.82587718 20.42736227 4.82587718 20.42736227 0 20 C0 13.4 0 6.8 0 0 Z " fill="#F6F6E2" transform="translate(561,101)"/>
<path d="M0 0 C12.21 0 24.42 0 37 0 C37 4.62 37 9.24 37 14 C36.01 14 35.02 14 34 14 C35.08190801 16.3340038 36.16527502 18.66730538 37.25 21 C37.7298938 22.03350586 37.7298938 22.03350586 38.21948242 23.08789062 C39.85412701 26.59478071 41.52218275 30.06912588 43.3125 33.5 C45.01214678 37.02519332 46.05517283 40.22069132 47 44 C47.17015625 43.10539062 47.3403125 42.21078125 47.515625 41.2890625 C49.32778962 32.24751777 51.82222649 24.20700396 56 16 C55.01 16 54.02 16 53 16 C53 10.72 53 5.44 53 0 C65.54 0 78.08 0 91 0 C91 6.27 91 12.54 91 19 C88.03 19 85.06 19 82 19 C81.649375 20.155 81.29875 21.31 80.9375 22.5 C78.70886601 29.21789194 75.73894154 35.63039734 72.84448242 42.08129883 C72.01538604 43.96504224 71.23658645 45.86487601 70.45703125 47.76953125 C69.22319473 50.50514198 68.12556761 52.33400151 66.1875 54.5625 C64.86389759 56.23909278 64.86389759 56.23909278 64 58 C64.52243527 61.33052486 65.40028305 63.21776051 67.4375 65.875 C69 68 69 68 70.125 71.375 C71.83646123 76.31510971 74.78862649 80.4794578 77.77587891 84.72412109 C80.71400664 89.04330426 81.96050293 92.8755604 83 98 C85.64 98 88.28 98 91 98 C91.495 106.91 91.495 106.91 92 116 C79.13 116 66.26 116 53 116 C53 111.38 53 106.76 53 102 C53.99 102 54.98 102 56 102 C53.41679035 95.3140456 50.03754844 88.92498072 46 83 C45.34 83 44.68 83 44 83 C43.45730469 83.95261719 42.91460937 84.90523438 42.35546875 85.88671875 C41.63284161 87.15366244 40.91018373 88.42058859 40.1875 89.6875 C39.83107422 90.31333984 39.47464844 90.93917969 39.10742188 91.58398438 C37.1116542 95.08115525 35.08731295 98.55626286 33 102 C34.65 102 36.3 102 38 102 C38 106.62 38 111.24 38 116 C25.46 116 12.92 116 0 116 C0 110.39 0 104.78 0 99 C2.475 98.505 2.475 98.505 5 98 C6.44455344 95.7259933 7.49734188 93.69620083 8.5625 91.25 C11.83793941 84.22574006 15.45113497 77.47018735 19.3125 70.75 C20.08605835 69.39310059 20.08605835 69.39310059 20.87524414 68.00878906 C23.08363506 64.16955852 25.28381544 60.50635638 28 57 C27.34 57 26.68 57 26 57 C23.12335916 51.79632043 20.28688853 46.58219786 17.5859375 41.28515625 C16.94664307 40.04149292 16.94664307 40.04149292 16.29443359 38.77270508 C15.44852435 37.12412338 14.60997261 35.47174006 13.77978516 33.81518555 C11.17799042 28.76657663 8.37466968 23.73413301 4 20 C2.68 19.67 1.36 19.34 0 19 C0 12.73 0 6.46 0 0 Z " fill="#F6F6E4" transform="translate(331,101)"/>
<path d="M0 0 C4.21752518 -0.02473064 8.43501186 -0.04287453 12.65258789 -0.05493164 C14.08716568 -0.05995842 15.52173836 -0.06678079 16.95629883 -0.07543945 C19.01905582 -0.08757752 21.08174504 -0.09324486 23.14453125 -0.09765625 C24.38565674 -0.10289307 25.62678223 -0.10812988 26.90551758 -0.11352539 C30 0 30 0 33 1 C33.7734375 3.52734375 33.7734375 3.52734375 34.375 6.9375 C35.48901268 12.70691304 36.86654368 18.29448597 38.5 23.9375 C40.40509403 30.5838801 41.93542414 37.16918062 43.12890625 43.984375 C43.81902242 47.50899857 44.83635414 50.90890145 45.85546875 54.3515625 C48.06077574 61.9489081 49.72730932 69.61122798 51.29248047 77.36279297 C51.75682676 79.65875494 52.23139466 81.95244682 52.70703125 84.24609375 C53.00840815 85.71862822 53.30921146 87.19128022 53.609375 88.6640625 C53.74994324 89.34320709 53.89051147 90.02235168 54.03533936 90.72207642 C54.67599176 93.92052111 55 96.71490085 55 100 C56.32 100 57.64 100 59 100 C59.495 108.91 59.495 108.91 60 118 C41.19 117.505 41.19 117.505 22 117 C21.67 111.39 21.34 105.78 21 100 C24.63 100 28.26 100 32 100 C31.67 98.35 31.34 96.7 31 95 C16.15 94.505 16.15 94.505 1 94 C0.67 96.31 0.34 98.62 0 101 C1.98 101 3.96 101 6 101 C6 106.28 6 111.56 6 117 C-5.88 117 -17.76 117 -30 117 C-30 111.06 -30 105.12 -30 99 C-28.02 99 -26.04 99 -24 99 C-23.84144531 98.35417969 -23.68289062 97.70835937 -23.51953125 97.04296875 C-21.93445636 90.64136796 -20.29791322 84.25411639 -18.625 77.875 C-18.30354004 76.64740967 -18.30354004 76.64740967 -17.97558594 75.39501953 C-16.9500154 71.50468864 -15.90314347 67.6243294 -14.77734375 63.76171875 C-11.74465231 53.31523874 -9.39394239 42.79024216 -7.17138672 32.14208984 C-5.60428049 24.67408849 -3.87783996 17.31099833 -1.76171875 9.98046875 C-0.91585562 6.67075814 -0.46178241 3.38250012 0 0 Z " fill="#F6F5E2" transform="translate(258,100)"/>
<path d="M0 0 C11.88 0 23.76 0 36 0 C36 6.93 36 13.86 36 21 C33.36 21 30.72 21 28 21 C28 32.22 28 43.44 28 55 C36.58 55 45.16 55 54 55 C54 43.78 54 32.56 54 21 C51.69 21 49.38 21 47 21 C47 14.07 47 7.14 47 0 C59.54 0 72.08 0 85 0 C85 6.6 85 13.2 85 20 C81.37 20 77.74 20 74 20 C74 46.07 74 72.14 74 99 C74.99 98.67 75.98 98.34 77 98 C79.31 98 81.62 98 84 98 C84 103.94 84 109.88 84 116 C71.79 115.67 59.58 115.34 47 115 C47 109.72 47 104.44 47 99 C49.31 99 51.62 99 54 99 C54 90.42 54 81.84 54 73 C45.42 73 36.84 73 28 73 C28 81.91 28 90.82 28 100 C30.64 100 33.28 100 36 100 C36 105.28 36 110.56 36 116 C24.12 115.67 12.24 115.34 0 115 C0 109.72 0 104.44 0 99 C2.64 99 5.28 99 8 99 C8 73.26 8 47.52 8 21 C5.36 21 2.72 21 0 21 C0 14.07 0 7.14 0 0 Z " fill="#F7F6E2" transform="translate(119,101)"/>
<path d="M0 0 C5.01714785 -0.02301444 10.03411087 -0.04291046 15.05126953 -0.05493164 C16.75635399 -0.05994564 18.46143418 -0.0667585 20.16650391 -0.07543945 C22.62403419 -0.08763385 25.08150738 -0.09325775 27.5390625 -0.09765625 C28.29555084 -0.10281754 29.05203918 -0.10797882 29.83145142 -0.11329651 C34.08614892 -0.11374266 37.74996444 0.29166074 42 1 C42.495 10.405 42.495 10.405 43 20 C40.03 20 37.06 20 34 20 C34 44.75 34 69.5 34 95 C42.25 95 50.5 95 59 95 C59 88.4 59 81.8 59 75 C69.23 75 79.46 75 90 75 C90 88.86 90 102.72 90 117 C67.82874151 117.04010881 67.82874151 117.04010881 58.41210938 117.04882812 C51.97484518 117.05481683 45.53759515 117.06191786 39.1003418 117.07543945 C33.91325157 117.08626745 28.72617651 117.09227665 23.53907585 117.09487724 C21.5554372 117.09673165 19.57179942 117.10035256 17.58816719 117.10573006 C14.81990864 117.11293932 12.05171362 117.11399099 9.28344727 117.11352539 C8.45482681 117.11712067 7.62620636 117.12071594 6.7724762 117.12442017 C1.11405216 117.11405216 1.11405216 117.11405216 0 116 C-0.07325168 113.13732433 -0.09238205 110.299281 -0.0625 107.4375 C-0.05798828 106.63119141 -0.05347656 105.82488281 -0.04882812 104.99414062 C-0.03700518 102.99606244 -0.01906914 100.99802217 0 99 C6.75 98.875 6.75 98.875 9 100 C9 73.93 9 47.86 9 21 C6.03 21 3.06 21 0 21 C0 14.07 0 7.14 0 0 Z " fill="#F4F4E1" transform="translate(678,100)"/>
<path d="M0 0 C0.33 0 0.66 0 1 0 C1 44.88 1 89.76 1 136 C154.45 135.67 307.9 135.34 466 135 C465.67 133.35 465.34 131.7 465 130 C466.1875 128.1875 466.1875 128.1875 468 127 C469.32 127 470.64 127 472 127 C472 127.66 472 128.32 472 129 C474.86724686 128.42655063 475.8614515 128.1385485 478 126 C480.98095703 125.77294922 480.98095703 125.77294922 484.7578125 125.8046875 C485.75238968 125.80893234 485.75238968 125.80893234 486.76705933 125.81326294 C488.88655583 125.82446565 491.00563104 125.84956949 493.125 125.875 C494.56119182 125.88502972 495.99739025 125.89415559 497.43359375 125.90234375 C500.95602238 125.92270461 504.47753917 125.9618506 508 126 C508 121.38 508 116.76 508 112 C506.02 112 504.04 112 502 112 C503.72497507 107.3970402 505.9095871 103.06744176 508.125 98.6875 C508.49753906 97.94693359 508.87007812 97.20636719 509.25390625 96.44335938 C510.16744806 94.62798783 511.08347487 92.81386718 512 91 C515.97141895 92.2315861 517.2731894 94.75569979 519.14648438 98.3125 C519.66178711 99.3334375 519.66178711 99.3334375 520.1875 100.375 C520.54263672 101.04789062 520.89777344 101.72078125 521.26367188 102.4140625 C522.90424317 105.57690962 524.23023255 108.52625117 525 112 C523.35 112 521.7 112 520 112 C520 116.62 520 121.24 520 126 C521.0209375 125.98839844 522.041875 125.97679687 523.09375 125.96484375 C536.08382318 125.86774439 549.02641461 126.37890653 562 127 C562.33 127.99 562.66 128.98 563 130 C563.99 130.33 564.98 130.66 566 131 C564.68 131.66 563.36 132.32 562 133 C562.99 133.33 563.98 133.66 565 134 C565 134.66 565 135.32 565 136 C608.56 136 652.12 136 697 136 C697 136.33 697 136.66 697 137 C466.99 137 236.98 137 0 137 C0 91.79 0 46.58 0 0 Z " fill="#414E53" transform="translate(94,91)"/>
<path d="M0 0 C12.21 0 24.42 0 37 0 C37.495 5.94 37.495 5.94 38 12 C38.0825 10.88625 38.165 9.7725 38.25 8.625 C39 5 39 5 40.875 3.5625 C43 3 43 3 46 3 C46.33 2.34 46.66 1.68 47 1 C47 7.93 47 14.86 47 22 C49.31 22 51.62 22 54 22 C54 33.22 54 44.44 54 56 C45.42 56 36.84 56 28 56 C28 44.78 28 33.56 28 22 C30.64 22 33.28 22 36 22 C36 15.07 36 8.14 36 1 C24.12 1 12.24 1 0 1 C0 0.67 0 0.34 0 0 Z " fill="#3F4F58" transform="translate(119,100)"/>
<path d="M0 0 C8.58 0 17.16 0 26 0 C26 8.58 26 17.16 26 26 C23.69 26 21.38 26 19 26 C19 31.28 19 36.56 19 42 C29.23 42 39.46 42 50 42 C50 42.33 50 42.66 50 43 C39.77 43.66 29.54 44.32 19 45 C20.32 45.66 21.64 46.32 23 47 C20.36 47 17.72 47 15 47 C14.67 46.01 14.34 45.02 14 44 C12.4221875 44.2784375 12.4221875 44.2784375 10.8125 44.5625 C7.25545781 44.97068517 5.41187355 44.69075875 2 44 C-0.34814366 43.8548483 -2.69919857 43.75364089 -5.05078125 43.68359375 C-6.03899117 43.6524221 -6.03899117 43.6524221 -7.04716492 43.62062073 C-9.13551185 43.55564511 -11.22397612 43.49648425 -13.3125 43.4375 C-14.7350378 43.39426521 -16.15756406 43.3506494 -17.58007812 43.30664062 C-21.05326297 43.20001784 -24.52657726 43.09860652 -28 43 C-28 42.67 -28 42.34 -28 42 C-23.67668037 41.97519938 -19.35339894 41.95709242 -15.0300293 41.94506836 C-13.56062091 41.94005331 -12.09121748 41.93323967 -10.62182617 41.92456055 C-8.50438205 41.91237072 -6.38700417 41.90674331 -4.26953125 41.90234375 C-2.36071167 41.89448853 -2.36071167 41.89448853 -0.41333008 41.88647461 C3 42 3 42 8 43 C8 37.72 8 32.44 8 27 C5.36 27 2.72 27 0 27 C0 18.09 0 9.18 0 0 Z " fill="#43515A" transform="translate(147,174)"/>
<path d="M0 0 C8.91 0 17.82 0 27 0 C28.32 3.3 29.64 6.6 31 10 C31.66 11.32 32.32 12.64 33 14 C32.69158489 18.00939647 31.14308094 20.65679373 29 24 C28.34 25.32 27.68 26.64 27 28 C19.08 28 11.16 28 3 28 C3 28.99 3 29.98 3 31 C2.01 31 1.02 31 0 31 C0 20.77 0 10.54 0 0 Z " fill="#374952" transform="translate(483,168)"/>
<path d="M0 0 C4.23069871 -0.16191193 8.45521225 -0.28089937 12.6875 -0.375 C14.48477539 -0.45041016 14.48477539 -0.45041016 16.31835938 -0.52734375 C24.97928427 -0.67209458 24.97928427 -0.67209458 27.95214844 1.28540039 C29.88239329 3.51278885 31.04665401 5.18355477 30.875 8.1875 C30.441875 9.0846875 30.441875 9.0846875 30 10 C28.46557489 14.22154311 28.46557489 14.22154311 28 24 C18.76 24 9.52 24 0 24 C0 16.08 0 8.16 0 0 Z " fill="#3B4B52" transform="translate(484,122)"/>
<path d="M0 0 C33.66 0.33 67.32 0.66 102 1 C102 1.33 102 1.66 102 2 C93.585 2.495 93.585 2.495 85 3 C85 4.65 85 6.3 85 8 C83.02 8.33 81.04 8.66 79 9 C79 8.67 79 8.34 79 8 C70.09 8 61.18 8 52 8 C51.67 9.32 51.34 10.64 51 12 C47.9375 13.25 47.9375 13.25 45 14 C44.34 17.96 43.68 21.92 43 26 C42.67 26 42.34 26 42 26 C42 20.39 42 14.78 42 9 C38.6896875 9.0309375 38.6896875 9.0309375 35.3125 9.0625 C27.46861613 9.10430729 19.66158448 8.7436151 11.83325195 8.26782227 C10.97304443 8.21940186 10.11283691 8.17098145 9.2265625 8.12109375 C8.07534912 8.05039673 8.07534912 8.05039673 6.90087891 7.97827148 C4.91073116 7.86256731 4.91073116 7.86256731 3 9 C2.87625 8.030625 2.7525 7.06125 2.625 6.0625 C2.41875 5.051875 2.2125 4.04125 2 3 C1.34 2.67 0.68 2.34 0 2 C0 1.34 0 0.68 0 0 Z " fill="#263F4C" transform="translate(114,91)"/>
<path d="M0 0 C4.25414623 -0.02465622 8.50825498 -0.04283899 12.76245117 -0.05493164 C14.21070073 -0.05997101 15.65894517 -0.06680253 17.10717773 -0.07543945 C19.18474588 -0.08752247 21.26224697 -0.09323211 23.33984375 -0.09765625 C24.59144287 -0.10289307 25.84304199 -0.10812988 27.13256836 -0.11352539 C30 0 30 0 31 1 C31 2.65 31 4.3 31 6 C27.37 6 23.74 6 20 6 C20.33 6.66 20.66 7.32 21 8 C21.0716735 10.55157655 21.09308442 13.07472971 21.0625 15.625 C21.05798828 16.33140625 21.05347656 17.0378125 21.04882812 17.765625 C21.03703875 19.51045275 21.01910324 21.255237 21 23 C21.99 23.33 22.98 23.66 24 24 C23.34 24 22.68 24 22 24 C22 24.66 22 25.32 22 26 C23.32 26.33 24.64 26.66 26 27 C25.505 27.495 25.505 27.495 25 28 C25.639375 28.268125 26.27875 28.53625 26.9375 28.8125 C29 30 29 30 30 33 C24.39 33 18.78 33 13 33 C12.67 32.34 12.34 31.68 12 31 C11.01268258 29.65724831 10.01405257 28.32267727 9 27 C9.66 26.67 10.32 26.34 11 26 C11 25.34 11 24.68 11 24 C10.34 24 9.68 24 9 24 C8.34 24.66 7.68 25.32 7 26 C6.67 25.34 6.34 24.68 6 24 C1.38 24.33 -3.24 24.66 -8 25 C-8.33 24.34 -8.66 23.68 -9 23 C-4.38 23 0.24 23 5 23 C5 17.72 5 12.44 5 7 C3.02 7 1.04 7 -1 7 C-0.67 4.69 -0.34 2.38 0 0 Z " fill="#35434C" transform="translate(259,194)"/>
<path d="M0 0 C84.81 0 169.62 0 257 0 C257 0.33 257 0.66 257 1 C256.26323029 1.01030746 255.52646057 1.02061493 254.7673645 1.03123474 C247.73859526 1.13023387 240.70988996 1.23286926 233.68123055 1.33933926 C230.06990089 1.39392205 226.45856288 1.44721944 222.84716797 1.49731445 C208.70156388 1.69432888 194.57491467 1.89251624 180.453125 2.79711914 C176.26480158 3.04319499 172.13156656 3.06826558 167.9375 3 C165.62528613 2.96362299 163.31198635 2.95126247 161 3 C160.67 3.33 160.34 3.66 160 4 C158.0595464 3.93541607 156.12130184 3.79803668 154.1875 3.625 C152.60001953 3.48964844 152.60001953 3.48964844 150.98046875 3.3515625 C148 3 148 3 145.9296875 2.46875 C138.64444525 0.69905553 129.31999152 1.68932584 122 3 C121.01 3.66 120.02 4.32 119 5 C116.34301758 5.04345703 116.34301758 5.04345703 113.14453125 4.7578125 C111.37239258 4.61279297 111.37239258 4.61279297 109.56445312 4.46484375 C108.32630859 4.35269531 107.08816406 4.24054688 105.8125 4.125 C92.25805582 2.93356215 78.90772108 2.8450625 65.328125 3.2890625 C64.50366379 3.3158609 63.67920258 3.3426593 62.82975769 3.37026978 C59.44922074 3.48171267 56.06884033 3.59346411 52.68896484 3.72363281 C43.84628022 4.0585958 35.51977319 4.25784698 26.79785156 2.49853516 C21.65690288 1.58249526 16.45999764 1.5293703 11.25 1.375 C9.61417969 1.31699219 9.61417969 1.31699219 7.9453125 1.2578125 C5.29702852 1.16489026 2.64872835 1.07903775 0 1 C0 0.67 0 0.34 0 0 Z " fill="#30393B" transform="translate(528,91)"/>
<path d="M0 0 C3.97141895 1.2315861 5.2731894 3.75569979 7.14648438 7.3125 C7.49001953 7.993125 7.83355469 8.67375 8.1875 9.375 C8.54263672 10.04789063 8.89777344 10.72078125 9.26367188 11.4140625 C10.90424317 14.57690962 12.23023255 17.52625117 13 21 C11.35 21 9.7 21 8 21 C8.495 29.415 8.495 29.415 9 38 C7.68 38 6.36 38 5 38 C3.515 38.495 3.515 38.495 2 39 C1.67 38.34 1.34 37.68 1 37 C0.67 38.32 0.34 39.64 0 41 C-1.65 40.67 -3.3 40.34 -5 40 C-4.67 38.68 -4.34 37.36 -4 36 C-9.445 36.495 -9.445 36.495 -15 37 C-15.33 36.34 -15.66 35.68 -16 35 C-12.04 35 -8.08 35 -4 35 C-4 30.38 -4 25.76 -4 21 C-5.98 21 -7.96 21 -10 21 C-8.27502493 16.3970402 -6.0904129 12.06744176 -3.875 7.6875 C-3.50246094 6.94693359 -3.12992188 6.20636719 -2.74609375 5.44335938 C-1.83255194 3.62798783 -0.91652513 1.81386718 0 0 Z " fill="#3B494F" transform="translate(606,182)"/>
<path d="M0 0 C-0.33 0.33 -0.66 0.66 -1 1 C0.65 1.33 2.3 1.66 4 2 C3.34 2.99 2.68 3.98 2 5 C2 5.99 2 6.98 2 8 C-3.37506487 9.12501358 -3.37506487 9.12501358 -6.29862976 8.54017639 C-9.42311593 7.91539211 -12.34800884 7.83798823 -15.53442383 7.79467773 C-16.83539505 7.77473251 -18.13636627 7.75478729 -19.47676086 7.73423767 C-20.8868498 7.71725711 -22.29693996 7.70037817 -23.70703125 7.68359375 C-25.15720692 7.66300625 -26.60737682 7.64200932 -28.05754089 7.62062073 C-31.86326415 7.56558545 -35.66903989 7.51609489 -39.47485352 7.46777344 C-43.36284015 7.41742249 -47.25075113 7.36180757 -51.13867188 7.30664062 C-58.75905041 7.19928608 -66.37949211 7.0977913 -74 7 C-73.34 6.67 -72.68 6.34 -72 6 C-72 5.34 -72 4.68 -72 4 C-67.85756187 1.92878094 -65.4771531 2.14267281 -61 3 C-58.72349255 2.6422386 -58.72349255 2.6422386 -57 2 C-57.66 1.34 -58.32 0.68 -59 0 C-51.24054221 -0.16825677 -43.48094444 -0.32814157 -35.72119141 -0.48217773 C-33.08085209 -0.53558187 -30.44055097 -0.59090998 -27.80029297 -0.64819336 C-24.00757075 -0.73014809 -20.21476549 -0.80520677 -16.421875 -0.87890625 C-15.23946228 -0.90594131 -14.05704956 -0.93297638 -12.83880615 -0.96083069 C-11.1875473 -0.99097511 -11.1875473 -0.99097511 -9.50292969 -1.02172852 C-8.53474304 -1.04171402 -7.5665564 -1.06169952 -6.56903076 -1.08229065 C-4.20733137 -1.00664119 -2.25387191 -0.67864114 0 0 Z " fill="#264754" transform="translate(524,92)"/>
<path d="M0 0 C0.66 0 1.32 0 2 0 C4.75394543 6.65048524 6.68337825 13.36500739 8.25 20.375 C8.42499023 21.14763184 8.59998047 21.92026367 8.78027344 22.71630859 C9.63989637 26.69184844 10 29.84220972 10 34 C4.39 34 -1.22 34 -7 34 C-7.98918077 29.05409616 -7.59246569 26.17446169 -6.3125 21.5 C-6.13041992 20.80455078 -5.94833984 20.10910156 -5.76074219 19.39257812 C-4.02793554 12.87151847 -2.06751335 6.42248828 0 0 Z " fill="#35474D" transform="translate(273,141)"/>
<path d="M0 0 C33.66 0.33 67.32 0.66 102 1 C102 1.33 102 1.66 102 2 C100.41747437 2.08302368 100.41747437 2.08302368 98.80297852 2.16772461 C94.90216257 2.37360875 91.00170106 2.58563795 87.10131836 2.79956055 C85.41065403 2.89141797 83.71989733 2.98159109 82.02905273 3.07006836 C79.60374317 3.19726743 77.17882635 3.33044877 74.75390625 3.46484375 C73.61327477 3.52272316 73.61327477 3.52272316 72.44960022 3.58177185 C68.92677133 3.48140678 68.92677133 3.48140678 66 5 C64.48071962 5.07179964 62.95832518 5.08392007 61.4375 5.0625 C60.61121094 5.05347656 59.78492188 5.04445313 58.93359375 5.03515625 C58.29550781 5.02355469 57.65742188 5.01195313 57 5 C57 4.34 57 3.68 57 3 C56.01 3.33 55.02 3.66 54 4 C51.24439592 3.82937436 48.52950028 3.48842428 45.7890625 3.15625 C42.93897506 2.99658124 40.78626636 3.43705576 38 4 C25.0841027 5.28181527 12.51021893 5.8984309 0 2 C0 1.34 0 0.68 0 0 Z " fill="#233239" transform="translate(114,91)"/>
<path d="M0 0 C3.65353155 1.43643121 4.93978166 3.05835031 6.75 6.5 C7.17796875 7.2940625 7.6059375 8.088125 8.046875 8.90625 C9 11 9 11 9 13 C7.02 13 5.04 13 3 13 C1.74335022 15.90600261 1 17.79604584 1 21 C0.34 21.33 -0.32 21.66 -1 22 C-1 22.99 -1 23.98 -1 25 C-1.99 25.66 -2.98 26.32 -4 27 C-4.57748803 28.96361864 -4.57748803 28.96361864 -4.6875 31.125 C-4.790625 32.40375 -4.89375 33.6825 -5 35 C-6.32 34.67 -7.64 34.34 -9 34 C-8.01 34 -7.02 34 -6 34 C-6 29.38 -6 24.76 -6 20 C-7.65 20 -9.3 20 -11 20 C-9.4095488 15.6366679 -7.25824078 11.75213615 -4.9375 7.75 C-4.57333984 7.11320313 -4.20917969 6.47640625 -3.83398438 5.8203125 C-1.14074248 1.14074248 -1.14074248 1.14074248 0 0 Z " fill="#3D484F" transform="translate(375,183)"/>
<path d="M0 0 C13.73082938 -0.40784642 27.32893074 0.83187773 41 2 C41 3.32 41 4.64 41 6 C31.26475712 6.13500337 21.70178229 5.7609241 12 5 C11.87882813 5.78246094 11.75765625 6.56492187 11.6328125 7.37109375 C11.38144531 8.88896484 11.38144531 8.88896484 11.125 10.4375 C10.96257813 11.44683594 10.80015625 12.45617187 10.6328125 13.49609375 C10.42398438 14.32238281 10.21515625 15.14867188 10 16 C9.34 16.33 8.68 16.66 8 17 C8 14.36 8 11.72 8 9 C7.01 9 6.02 9 5 9 C5 7.68 5 6.36 5 5 C4.34 5 3.68 5 3 5 C2.67 5.66 2.34 6.32 2 7 C1.34 6.67 0.68 6.34 0 6 C0 4.02 0 2.04 0 0 Z " fill="#263B45" transform="translate(604,93)"/>
<path d="M0 0 C25.08274979 -0.07240215 50.15475854 0.10577304 75.23486328 0.46356201 C79.63506553 0.52576415 84.03530792 0.58499276 88.43554688 0.64453125 C96.95707124 0.76024227 105.47854869 0.87902835 114 1 C113.34 1.99 112.68 2.98 112 4 C109.49609375 4.328125 109.49609375 4.328125 106.4375 4.25 C105.34824219 4.22421875 104.25898437 4.1984375 103.13671875 4.171875 C100.64481746 4.03533246 98.22142847 3.82506216 95.75 3.5 C85.75223292 2.22731992 75.38277843 2.95177813 65.328125 3.2890625 C64.09264923 3.32933563 64.09264923 3.32933563 62.83221436 3.37042236 C59.45084973 3.4815786 56.06965738 3.59343264 52.68896484 3.72363281 C43.84628022 4.0585958 35.51977319 4.25784698 26.79785156 2.49853516 C21.65690288 1.58249526 16.45999764 1.5293703 11.25 1.375 C9.61417969 1.31699219 9.61417969 1.31699219 7.9453125 1.2578125 C5.29702852 1.16489026 2.64872835 1.07903775 0 1 C0 0.67 0 0.34 0 0 Z " fill="#243035" transform="translate(528,91)"/>
<path d="M0 0 C-1 1 -1 1 -3.5625 1.0625 C-4.7690625 1.0315625 -4.7690625 1.0315625 -6 1 C-6 1.66 -6 2.32 -6 3 C-6.88300781 2.98839844 -7.76601563 2.97679688 -8.67578125 2.96484375 C-10.47595703 2.95130859 -10.47595703 2.95130859 -12.3125 2.9375 C-13.48425781 2.92589844 -14.65601563 2.91429688 -15.86328125 2.90234375 C-18.93860565 2.92625999 -21.94203623 3.17842445 -25 3.5 C-32.22291997 4.20095848 -39.43829077 4.1084744 -46.6875 4.0625 C-48.08268067 4.05747028 -49.47786311 4.05291 -50.87304688 4.04882812 C-54.24874437 4.03714751 -57.62434826 4.02076833 -61 4 C-59.68 3.34 -58.36 2.68 -57 2 C-57.66 1.34 -58.32 0.68 -59 0 C-51.24054221 -0.16825677 -43.48094444 -0.32814157 -35.72119141 -0.48217773 C-33.08085209 -0.53558187 -30.44055097 -0.59090998 -27.80029297 -0.64819336 C-24.00757075 -0.73014809 -20.21476549 -0.80520677 -16.421875 -0.87890625 C-15.23946228 -0.90594131 -14.05704956 -0.93297638 -12.83880615 -0.96083069 C-11.1875473 -0.99097511 -11.1875473 -0.99097511 -9.50292969 -1.02172852 C-8.53474304 -1.04171402 -7.5665564 -1.06169952 -6.56903076 -1.08229065 C-4.20733137 -1.00664119 -2.25387191 -0.67864114 0 0 Z " fill="#232F36" transform="translate(524,92)"/>
<path d="M0 0 C22.77 0 45.54 0 69 0 C69 0.33 69 0.66 69 1 C54.2001582 2.81971994 39.6504881 3.24987759 24.75 3.125 C22.6250043 3.11493355 20.50000389 3.10581428 18.375 3.09765625 C13.24988028 3.07597121 8.12499473 3.04165099 3 3 C1.97233983 6.08298051 1.83401262 8.33130426 1.8125 11.5625 C1.79832031 12.53316406 1.78414063 13.50382812 1.76953125 14.50390625 C1.74792254 17.17398916 1.74792254 17.17398916 4 19 C2.68 19 1.36 19 0 19 C0 12.73 0 6.46 0 0 Z " fill="#ECF4EA" transform="translate(451,101)"/>
<path d="M0 0 C0.33 0 0.66 0 1 0 C1.33 4.95 1.66 9.9 2 15 C0.68 15 -0.64 15 -2 15 C-2.99 15.33 -3.98 15.66 -5 16 C-5.33 15.34 -5.66 14.68 -6 14 C-6.33 15.32 -6.66 16.64 -7 18 C-8.65 17.67 -10.3 17.34 -12 17 C-11.67 15.68 -11.34 14.36 -11 13 C-14.63 13.33 -18.26 13.66 -22 14 C-22.33 13.34 -22.66 12.68 -23 12 C-19.04 12 -15.08 12 -11 12 C-10.8453125 10.39125 -10.8453125 10.39125 -10.6875 8.75 C-10.02599507 5.14179128 -9.42516579 3.63604977 -7 1 C-6.1028125 1.5259375 -6.1028125 1.5259375 -5.1875 2.0625 C-2.89186786 3.33304698 -2.89186786 3.33304698 0 2 C0 1.34 0 0.68 0 0 Z " fill="#3A4951" transform="translate(613,205)"/>
<path d="M0 0 C19.47 0 38.94 0 59 0 C59 0.33 59 0.66 59 1 C57.77023437 1.05607422 57.77023437 1.05607422 56.515625 1.11328125 C55.43796875 1.17902344 54.3603125 1.24476562 53.25 1.3125 C52.18265625 1.37050781 51.1153125 1.42851563 50.015625 1.48828125 C46.75889421 2.04091303 45.5151659 2.96851985 43 5 C38.42349279 5.40861671 34.4909359 4.93426991 30 4.0625 C19.80901706 2.20119353 9.3303022 2.30825501 -1 2 C-0.67 1.34 -0.34 0.68 0 0 Z " fill="#24323B" transform="translate(369,92)"/>
<path d="M0 0 C0.495 1.485 0.495 1.485 1 3 C1.495 3.99 1.495 3.99 2 5 C2.99 5.33 3.98 5.66 5 6 C5.495 10.95 5.495 10.95 6 16 C2.4858083 18.34279447 0.17785721 18.6398399 -4 19 C-4.75434326 18.84797119 -5.50868652 18.69594238 -6.28588867 18.53930664 C-9.5651498 17.88770209 -12.70886165 17.78314029 -16.05078125 17.68359375 C-16.70958786 17.66281265 -17.36839447 17.64203156 -18.04716492 17.62062073 C-20.13551185 17.55564511 -22.22397612 17.49648425 -24.3125 17.4375 C-25.7350378 17.39426521 -27.15756406 17.3506494 -28.58007812 17.30664062 C-32.05326297 17.20001784 -35.52657726 17.09860652 -39 17 C-39 16.67 -39 16.34 -39 16 C-34.67668037 15.97519938 -30.35339894 15.95709242 -26.0300293 15.94506836 C-24.56062091 15.94005331 -23.09121748 15.93323967 -21.62182617 15.92456055 C-19.50438205 15.91237072 -17.38700417 15.90674331 -15.26953125 15.90234375 C-13.36071167 15.89448853 -13.36071167 15.89448853 -11.41333008 15.88647461 C-8 16 -8 16 -3 17 C-3 11.72 -3 6.44 -3 1 C-2.34 1.33 -1.68 1.66 -1 2 C-0.67 1.34 -0.34 0.68 0 0 Z M-2 5 C-1.67 6.32 -1.34 7.64 -1 9 C-0.67 8.34 -0.34 7.68 0 7 C-0.66 6.34 -1.32 5.68 -2 5 Z " fill="#59666E" transform="translate(158,200)"/>
<path d="M0 0 C1.64258789 0.00676758 1.64258789 0.00676758 3.31835938 0.01367188 C5.98313309 0.02530844 8.64778517 0.04165436 11.3125 0.0625 C10.6525 1.0525 9.9925 2.0425 9.3125 3.0625 C9.3125 4.0525 9.3125 5.0425 9.3125 6.0625 C4.15892047 7.21321951 -0.32309804 6.92949249 -5.5 6.3125 C-6.69278564 6.17642334 -6.69278564 6.17642334 -7.90966797 6.03759766 C-13.47990829 5.34716631 -18.46957414 4.18832164 -23.6875 2.0625 C-23.6875 1.7325 -23.6875 1.4025 -23.6875 1.0625 C-15.7675587 0.18754821 -7.9640687 -0.06340042 0 0 Z " fill="#263B45" transform="translate(516.6875,93.9375)"/>
<path d="M0 0 C8.91 0 17.82 0 27 0 C27 0.33 27 0.66 27 1 C16.605 1.495 16.605 1.495 6 2 C4.12884515 7.39708245 4.12884515 7.39708245 3.83984375 12.6015625 C3.8562793 13.83132812 3.8562793 13.83132812 3.87304688 15.0859375 C3.89431641 15.92382812 3.91558594 16.76171875 3.9375 17.625 C3.97206492 19.30459883 4.00217376 20.98429661 4.02734375 22.6640625 C4.04531006 23.40092285 4.06327637 24.1377832 4.08178711 24.89697266 C3.9976382 27.06072998 3.59822117 28.92425169 3 31 C2.01 31 1.02 31 0 31 C0 20.77 0 10.54 0 0 Z " fill="#6E7876" transform="translate(483,168)"/>
<path d="M0 0 C8.58 0 17.16 0 26 0 C25.01 2.31 24.02 4.62 23 7 C14.09 6.67 5.18 6.34 -4 6 C-4 5.67 -4 5.34 -4 5 C1.445 4.505 1.445 4.505 7 4 C7 3.34 7 2.68 7 2 C4.69 1.67 2.38 1.34 0 1 C0 0.67 0 0.34 0 0 Z " fill="#244450" transform="translate(265,93)"/>
<path d="M0 0 C4.5024238 -0.02295853 9.00464438 -0.04287111 13.50708008 -0.05493164 C15.0386626 -0.0599596 16.57024033 -0.06678284 18.10180664 -0.07543945 C20.30356022 -0.08757229 22.50525033 -0.09324367 24.70703125 -0.09765625 C25.39150833 -0.10281754 26.07598541 -0.10797882 26.78120422 -0.11329651 C29.80906242 -0.1136536 32.10150142 0.03383381 35 1 C35 1.66 35 2.32 35 3 C23.78 3 12.56 3 1 3 C1 8.61 1 14.22 1 20 C0.67 20 0.34 20 0 20 C0 13.4 0 6.8 0 0 Z " fill="#49656D" transform="translate(330,98)"/>
<path d="M0 0 C1.32 0.66 2.64 1.32 4 2 C4.33 1.34 4.66 0.68 5 0 C5.66 0 6.32 0 7 0 C6.71125 1.258125 6.4225 2.51625 6.125 3.8125 C5.0777131 8.45153844 4.29335948 13.11411762 3.5625 17.8125 C3.376875 18.534375 3.19125 19.25625 3 20 C2.34 20.33 1.68 20.66 1 21 C0.72736328 20.03900391 0.72736328 20.03900391 0.44921875 19.05859375 C-1.06270045 13.85604103 -2.75000671 8.92855673 -5 4 C-3.35 2.68 -1.7 1.36 0 0 Z " fill="#495A55" transform="translate(376,125)"/>
<path d="M0 0 C12.54 0 25.08 0 38 0 C38 6.6 38 13.2 38 20 C37.67 20 37.34 20 37 20 C36.15976812 15.64667264 35.89229005 11.55557481 35.9375 7.125 C35.94652344 5.97257812 35.95554688 4.82015625 35.96484375 3.6328125 C35.97644531 2.76398438 35.98804688 1.89515625 36 1 C35.12988281 1.23396484 35.12988281 1.23396484 34.2421875 1.47265625 C33.07042969 1.76462891 33.07042969 1.76462891 31.875 2.0625 C30.72644531 2.35833984 30.72644531 2.35833984 29.5546875 2.66015625 C26.48734319 3.06819747 24.03749453 2.55853174 21 2 C18.83537744 1.88704033 16.66752952 1.82540196 14.5 1.8125 C12.87578125 1.79123047 12.87578125 1.79123047 11.21875 1.76953125 C7.79032864 2.01501288 5.15265749 2.63656623 2 4 C1.34 4.99 0.68 5.98 0 7 C0 4.69 0 2.38 0 0 Z " fill="#D1DBD4" transform="translate(166,101)"/>
<path d="M0 0 C0.66 0 1.32 0 2 0 C2.66 5.28 3.32 10.56 4 16 C-15.305 15.505 -15.305 15.505 -35 15 C-34.67 14.34 -34.34 13.68 -34 13 C-23.77 13 -13.54 13 -3 13 C-1.55147363 9.37868408 -0.74531357 7.32891674 -0.375 3.6875 C-0.189375 1.8621875 -0.189375 1.8621875 0 0 Z " fill="#F6FAF3" transform="translate(650,201)"/>
<path d="M0 0 C4.25414623 -0.02465622 8.50825498 -0.04283899 12.76245117 -0.05493164 C14.21070073 -0.05997101 15.65894517 -0.06680253 17.10717773 -0.07543945 C19.18474588 -0.08752247 21.26224697 -0.09323211 23.33984375 -0.09765625 C24.59144287 -0.10289307 25.84304199 -0.10812988 27.13256836 -0.11352539 C30 0 30 0 31 1 C31 2.65 31 4.3 31 6 C27.37 6 23.74 6 20 6 C20.66 5.67 21.32 5.34 22 5 C21.67 4.34 21.34 3.68 21 3 C18.87001829 2.53092949 18.87001829 2.53092949 16.30859375 2.3671875 C15.36435547 2.28339844 14.42011719 2.19960937 13.44726562 2.11328125 C12.45404297 2.03464844 11.46082031 1.95601562 10.4375 1.875 C9.44041016 1.78863281 8.44332031 1.70226562 7.41601562 1.61328125 C4.94460012 1.40043207 2.47276775 1.19640679 0 1 C0 0.67 0 0.34 0 0 Z " fill="#444E4C" transform="translate(259,194)"/>
<path d="M0 0 C1.32 0 2.64 0 4 0 C4.15526952 18.69445017 3.73226161 37.32343398 3 56 C2.67 56 2.34 56 2 56 C0.84171687 44.78171764 0.91505733 33.63799369 1 22.375 C1.02659742 18.77864915 1.04653048 15.18234936 1.0625 11.5859375 C1.07079834 10.76725189 1.07909668 9.94856628 1.08764648 9.10507202 C1.10201586 5.80489149 1.05139363 3.15418089 0 0 Z " fill="#2F3F40" transform="translate(123,122)"/>
<path d="M0 0 C2.39223697 2.39223697 2.6758631 3.67759676 3 7 C1 10 1 10 -1.625 10.6875 C-2.40875 10.790625 -3.1925 10.89375 -4 11 C-4.19335938 11.67546875 -4.38671875 12.3509375 -4.5859375 13.046875 C-4.84632813 13.93890625 -5.10671875 14.8309375 -5.375 15.75 C-5.63023437 16.63171875 -5.88546875 17.5134375 -6.1484375 18.421875 C-7.82193919 23.48843976 -9.19460465 25.47084455 -14 28 C-14.8125 26.3125 -14.8125 26.3125 -15 24 C-14.2884375 23.3296875 -13.576875 22.659375 -12.84375 21.96875 C-9.05196191 18.36351975 -7.01460413 13.81068021 -4.6875 9.1875 C-4.23310547 8.30384766 -3.77871094 7.42019531 -3.31054688 6.50976562 C-2.19842623 4.344057 -1.09526478 2.17426798 0 0 Z " fill="#535C5C" transform="translate(642,134)"/>
<path d="M0 0 C7.8187104 0.46569122 15.36399015 1.22458462 23 3 C23 3.66 23 4.32 23 5 C14.09 5 5.18 5 -4 5 C-4 4.34 -4 3.68 -4 3 C-3.01 2.67 -2.02 2.34 -1 2 C-0.67 1.34 -0.34 0.68 0 0 Z " fill="#22404F" transform="translate(388,94)"/>
<path d="M0 0 C7.26 0 14.52 0 22 0 C19 4 19 4 17.00708008 4.45410156 C16.26868896 4.4331543 15.53029785 4.41220703 14.76953125 4.390625 C13.56586914 4.37128906 13.56586914 4.37128906 12.33789062 4.3515625 C11.50451172 4.31804687 10.67113281 4.28453125 9.8125 4.25 C8.96751953 4.23195313 8.12253906 4.21390625 7.25195312 4.1953125 C5.16748427 4.14820586 3.08359856 4.07646233 1 4 C0.67 2.68 0.34 1.36 0 0 Z " fill="#273239" transform="translate(336,92)"/>
<path d="M0 0 C7.97122791 -0.10307622 15.9135764 -0.05150484 23.875 0.375 C24.57044922 0.40585693 25.26589844 0.43671387 25.98242188 0.46850586 C27.66125493 0.56974943 29.33320581 0.77521605 31 1 C31.495 1.99 31.495 1.99 32 3 C21.11 3 10.22 3 -1 3 C-0.67 2.01 -0.34 1.02 0 0 Z " fill="#436264" transform="translate(616,98)"/>
<path d="M0 0 C0 0.33 0 0.66 0 1 C-1.58252563 1.08302368 -1.58252563 1.08302368 -3.19702148 1.16772461 C-7.09783743 1.37360875 -10.99829894 1.58563795 -14.89868164 1.79956055 C-16.58934597 1.89141797 -18.28010267 1.98159109 -19.97094727 2.07006836 C-22.39625683 2.19726743 -24.82117365 2.33044877 -27.24609375 2.46484375 C-28.38672523 2.52272316 -28.38672523 2.52272316 -29.55039978 2.58177185 C-33.07322867 2.48140678 -33.07322867 2.48140678 -36 4 C-37.51928038 4.07179964 -39.04167482 4.08392007 -40.5625 4.0625 C-41.38878906 4.05347656 -42.21507812 4.04445313 -43.06640625 4.03515625 C-43.70449219 4.02355469 -44.34257812 4.01195313 -45 4 C-45 3.34 -45 2.68 -45 2 C-45.99 2.33 -46.98 2.66 -48 3 C-50.04296875 2.87890625 -50.04296875 2.87890625 -52.1875 2.5625 C-53.445625 2.376875 -54.70375 2.19125 -56 2 C-56 1.67 -56 1.34 -56 1 C-50.59642242 0.85487535 -45.19277918 0.71260362 -39.7890625 0.57275391 C-37.9583137 0.52499803 -36.12758359 0.47651914 -34.296875 0.42724609 C-22.86098913 0.12003205 -11.44036756 -0.07281705 0 0 Z " fill="#29373F" transform="translate(216,92)"/>
<path d="M0 0 C0.66 0 1.32 0 2 0 C3.29673602 2.53919006 4.58747837 5.08114238 5.875 7.625 C6.23980469 8.33785156 6.60460937 9.05070312 6.98046875 9.78515625 C9.00000927 13.78751837 10.7081111 17.68917073 12 22 C10.68 22 9.36 22 8 22 C8 21.01 8 20.02 8 19 C7.01 18.67 6.02 18.34 5 18 C4.67 15.36 4.34 12.72 4 10 C3.01 9.67 2.02 9.34 1 9 C1 7.02 1 5.04 1 3 C0.34 3 -0.32 3 -1 3 C-0.67 2.01 -0.34 1.02 0 0 Z " fill="#E2E5DA" transform="translate(364,118)"/>
<path d="M0 0 C0.33 0 0.66 0 1 0 C1 5.61 1 11.22 1 17 C16.345 16.505 16.345 16.505 32 16 C32.33 15.01 32.66 14.02 33 13 C33.495 13.99 33.495 13.99 34 15 C34.495 8.565 34.495 8.565 35 2 C35.33 2 35.66 2 36 2 C36 7.28 36 12.56 36 18 C24.12 18 12.24 18 0 18 C0 12.06 0 6.12 0 0 Z " fill="#ADB2B0" transform="translate(228,199)"/>
<path d="M0 0 C7.92 0 15.84 0 24 0 C18.440121 3.706586 12.38499127 3.21618881 6 2 C5.01 2.33 4.02 2.66 3 3 C2.67 5.64 2.34 8.28 2 11 C1.01 10.67 0.02 10.34 -1 10 C-1.125 3.375 -1.125 3.375 0 0 Z " fill="#F1F8ED" transform="translate(259,101)"/>
<path d="M0 0 C0 0.99 0 1.98 0 3 C-9.73524288 3.13500337 -19.29821771 2.7609241 -29 2 C-29 1.34 -29 0.68 -29 0 C-24.72953289 -0.19656362 -20.45861919 -0.38070249 -16.1875 -0.5625 C-14.97255859 -0.61857422 -13.75761719 -0.67464844 -12.50585938 -0.73242188 C-11.34248047 -0.78076172 -10.17910156 -0.82910156 -8.98046875 -0.87890625 C-7.90692139 -0.9260376 -6.83337402 -0.97316895 -5.72729492 -1.02172852 C-3 -1 -3 -1 0 0 Z " fill="#244050" transform="translate(645,96)"/>
<path d="M0 0 C2.96337891 1.52441406 2.96337891 1.52441406 6 4 C6.5534942 6.83055745 6.71010733 8.79784706 6.5859375 11.609375 C6.57744781 12.33618469 6.56895813 13.06299438 6.56021118 13.81182861 C6.52670601 16.12608121 6.45144932 18.43680705 6.375 20.75 C6.34489589 22.32156413 6.31752083 23.89318308 6.29296875 25.46484375 C6.2269265 29.31124813 6.12343921 33.15502691 6 37 C5.67 37 5.34 37 5 37 C4.97494385 36.31897217 4.9498877 35.63794434 4.92407227 34.9362793 C4.80809048 31.85316245 4.68537384 28.77034954 4.5625 25.6875 C4.52318359 24.61564453 4.48386719 23.54378906 4.44335938 22.43945312 C4.40146484 21.41142578 4.35957031 20.38339844 4.31640625 19.32421875 C4.27974854 18.37635498 4.24309082 17.42849121 4.20532227 16.4519043 C4.08569813 13.863829 4.08569813 13.863829 3 11 C2.34 10.67 1.68 10.34 1 10 C1.33 8.35 1.66 6.7 2 5 C1.01 4.67 0.02 4.34 -1 4 C-0.67 2.68 -0.34 1.36 0 0 Z " fill="#D9E0D7" transform="translate(537,117)"/>
<path d="M0 0 C0 0.99 0 1.98 0 3 C-9.57 3 -19.14 3 -29 3 C-29 2.34 -29 1.68 -29 1 C-9.65957447 -0.19148936 -9.65957447 -0.19148936 0 0 Z " fill="#537072" transform="translate(195,98)"/>
<path d="M0 0 C1.69726294 3.73397847 2.23990744 6.92157346 2 11 C-2.51533049 8.67783003 -5.01055501 6.01439755 -8 2 C-8 1.34 -8 0.68 -8 0 C-5.00700971 -0.96203259 -2.87793741 -1.4389687 0 0 Z " fill="#48565C" transform="translate(538,157)"/>
<path d="M0 0 C0.99 0 1.98 0 3 0 C3 0.99 3 1.98 3 3 C1.390625 4.53515625 1.390625 4.53515625 -0.75 6.0625 C-1.44609375 6.56910156 -2.1421875 7.07570312 -2.859375 7.59765625 C-5 9 -5 9 -7.203125 10.05859375 C-9.17891686 10.87055399 -9.17891686 10.87055399 -10 13 C-11.24508396 15.49016793 -12.46716796 15.98686718 -15 17 C-15.33 16.01 -15.66 15.02 -16 14 C-15.01257813 13.15695313 -14.02515625 12.31390625 -13.0078125 11.4453125 C-11.71350438 10.33858527 -10.41923559 9.23181204 -9.125 8.125 C-8.47402344 7.56941406 -7.82304688 7.01382813 -7.15234375 6.44140625 C-6.52714844 5.90644531 -5.90195312 5.37148437 -5.2578125 4.8203125 C-4.6817627 4.32805176 -4.10571289 3.83579102 -3.51220703 3.32861328 C-2.30047746 2.26399715 -1.14054725 1.14054725 0 0 Z " fill="#455256" transform="translate(540,202)"/>
<path d="M0 0 C0.33 0 0.66 0 1 0 C1 6.27 1 12.54 1 19 C0.67 19 0.34 19 0 19 C-0.33 14.71 -0.66 10.42 -1 6 C-1.99 7.98 -2.98 9.96 -4 12 C-4.99 11.67 -5.98 11.34 -7 11 C-7 8.69 -7 6.38 -7 4 C-4.35261084 2.5393715 -3.10551666 2 0 2 C0 1.34 0 0.68 0 0 Z " fill="#46555D" transform="translate(165,101)"/>
<path d="M0 0 C2.16207099 0.14049619 4.32675912 0.2442253 6.4921875 0.31640625 C7.69101562 0.35830078 8.88984375 0.40019531 10.125 0.44335938 C11.98125 0.50233398 11.98125 0.50233398 13.875 0.5625 C15.13570313 0.60568359 16.39640625 0.64886719 17.6953125 0.69335938 C20.79677423 0.79909102 23.89831145 0.90118571 27 1 C27 1.33 27 1.66 27 2 C14.65415863 2.67707648 2.36592489 3.1574163 -10 3 C-10 2.34 -10 1.68 -10 1 C-6.33960896 -1.3933326 -4.18456169 -0.74300904 0 0 Z " fill="#203B4E" transform="translate(462,95)"/>
<path d="M0 0 C8.58 0 17.16 0 26 0 C25.67 0.99 25.34 1.98 25 3 C17.25 3.125 17.25 3.125 15 2 C15 2.66 15 3.32 15 4 C14.21625 3.814375 13.4325 3.62875 12.625 3.4375 C10.02910225 2.74037734 10.02910225 2.74037734 8 4 C7.67 3.34 7.34 2.68 7 2 C4.67843403 1.59270772 2.3431213 1.25561323 0 1 C0 0.67 0 0.34 0 0 Z " fill="#233A46" transform="translate(265,93)"/>
<path d="M0 0 C13.2 0 26.4 0 40 0 C40 4.62 40 9.24 40 14 C39.67 14 39.34 14 39 14 C38.95101562 13.21753906 38.90203125 12.43507813 38.8515625 11.62890625 C38.77679687 10.61699219 38.70203125 9.60507813 38.625 8.5625 C38.52058594 7.04849609 38.52058594 7.04849609 38.4140625 5.50390625 C38.20910156 4.26447266 38.20910156 4.26447266 38 3 C35.12375343 1.56187671 32.66353394 1.90667185 29.453125 1.9375 C28.80430359 1.94128662 28.15548218 1.94507324 27.48699951 1.94897461 C24.71130636 1.96530075 21.93576047 1.99327057 19.16015625 2.02050781 C17.13281957 2.03871169 15.10550772 2.05073726 13.078125 2.0625 C11.25909668 2.07990234 11.25909668 2.07990234 9.40332031 2.09765625 C6.17105089 2.0049082 3.17029124 1.6149324 0 1 C0 0.67 0 0.34 0 0 Z " fill="#E5F5F0" transform="translate(680,101)"/>
<path d="M0 0 C0.66 0 1.32 0 2 0 C2.70088156 1.74468372 3.38524009 3.49601161 4.0625 5.25 C4.44535156 6.22453125 4.82820313 7.1990625 5.22265625 8.203125 C6.01113787 11.04007395 6.02437812 12.29409552 5 15 C5 14.34 5 13.68 5 13 C3.5459375 12.62875 3.5459375 12.62875 2.0625 12.25 C-1 11 -1 11 -2 9.3125 C-2 5.99138485 -1.02574768 3.13758113 0 0 Z " fill="#404B50" transform="translate(273,141)"/>
<path d="M0 0 C0.33 0.66 0.66 1.32 1 2 C1.99 2.33 2.98 2.66 4 3 C4.144375 4.0725 4.28875 5.145 4.4375 6.25 C4.83846927 8.92312847 5.32556908 11.39862358 6 14 C6 14.66 6 15.32 6 16 C3.50935112 16.68707555 1.62113708 17 -1 17 C0.2125738 13.27566618 1.50859979 9.62197194 3 6 C2.01 6 1.02 6 0 6 C0 4.02 0 2.04 0 0 Z " fill="#F3F7EF" transform="translate(616,110)"/>
<path d="M0 0 C0.66 0.33 1.32 0.66 2 1 C1.67 2.32 1.34 3.64 1 5 C0.34 5 -0.32 5 -1 5 C-1.12117187 5.62648437 -1.24234375 6.25296875 -1.3671875 6.8984375 C-1.61855469 8.12433594 -1.61855469 8.12433594 -1.875 9.375 C-2.03742187 10.18710938 -2.19984375 10.99921875 -2.3671875 11.8359375 C-3 14 -3 14 -5 16 C-5.99 16 -6.98 16 -8 16 C-8 16.66 -8 17.32 -8 18 C-8.66 18 -9.32 18 -10 18 C-8.64737628 13.25869791 -6.66645646 9.67711421 -3.875 5.625 C-3.15054688 4.56539062 -2.42609375 3.50578125 -1.6796875 2.4140625 C-0.84824219 1.21910156 -0.84824219 1.21910156 0 0 Z " fill="#E5E9E6" transform="translate(587,161)"/>
<path d="M0 0 C12.21 0 24.42 0 37 0 C37 0.99 37 1.98 37 3 C18.685 2.01 18.685 2.01 0 1 C0 0.67 0 0.34 0 0 Z " fill="#313836" transform="translate(528,91)"/>
<path d="M0 0 C0.99 0 1.98 0 3 0 C3 0.99 3 1.98 3 3 C2.34 3 1.68 3 1 3 C1 3.66 1 4.32 1 5 C1.66 5 2.32 5 3 5 C3.33 6.98 3.66 8.96 4 11 C3.34 11 2.68 11 2 11 C1.34 11.66 0.68 12.32 0 13 C-0.33 12.34 -0.66 11.68 -1 11 C-5.62 11.33 -10.24 11.66 -15 12 C-15.33 11.34 -15.66 10.68 -16 10 C-11.38 10 -6.76 10 -2 10 C-1.34 6.7 -0.68 3.4 0 0 Z " fill="#444E58" transform="translate(266,207)"/>
<path d="M0 0 C2.64 0 5.28 0 8 0 C8 0.66 8 1.32 8 2 C9.32 1.67 10.64 1.34 12 1 C13.5625 3.3125 13.5625 3.3125 15 6 C14.67 6.99 14.34 7.98 14 9 C13.34 8.01 12.68 7.02 12 6 C8.60085025 7.13304992 7.94745549 8.12518475 6 11 C6 8.03 6 5.06 6 2 C4.02 2 2.04 2 0 2 C0 1.34 0 0.68 0 0 Z " fill="#47565C" transform="translate(596,201)"/>
<path d="M0 0 C3.80666984 1.44390925 5.26602582 3.34952803 7 7 C6.67 7.66 6.34 8.32 6 9 C5.01 9 4.02 9 3 9 C2.34 7.02 1.68 5.04 1 3 C0.67 5.31 0.34 7.62 0 10 C-1.65 10.33 -3.3 10.66 -5 11 C-3.55049545 7.2089881 -1.84827434 3.6125362 0 0 Z " fill="#515A59" transform="translate(606,182)"/>
<path d="M0 0 C6.27 0 12.54 0 19 0 C14.0754853 3.2830098 8.82305673 2.11530805 3 2 C2.67 8.27 2.34 14.54 2 21 C1.67 21 1.34 21 1 21 C0.67 14.07 0.34 7.14 0 0 Z " fill="#364143" transform="translate(147,175)"/>
<path d="M0 0 C6.6 0 13.2 0 20 0 C20 0.33 20 0.66 20 1 C16.04 1 12.08 1 8 1 C8 1.66 8 2.32 8 3 C6.906875 3.12375 5.81375 3.2475 4.6875 3.375 C0.92618198 3.75464801 0.92618198 3.75464801 -2 6 C-2.99 6.33 -3.98 6.66 -5 7 C-5 6.01 -5 5.02 -5 4 C-3.68 4 -2.36 4 -1 4 C-0.67 2.68 -0.34 1.36 0 0 Z " fill="#2F3B42" transform="translate(120,217)"/>
<path d="M0 0 C0.33 0.99 0.66 1.98 1 3 C-0.4375 5.6875 -0.4375 5.6875 -2 8 C-0.02 8 1.96 8 4 8 C4 12.29 4 16.58 4 21 C3.67 21 3.34 21 3 21 C3 18.36 3 15.72 3 13 C2.195625 12.690625 1.39125 12.38125 0.5625 12.0625 C-2 11 -2 11 -3 10 C-3.04092937 7.66702567 -3.04241723 5.33294775 -3 3 C-2.34 3 -1.68 3 -1 3 C-0.67 2.01 -0.34 1.02 0 0 Z " fill="#E6EBE5" transform="translate(598,195)"/>
<path d="M0 0 C0.94314127 3.41610225 1.08065117 6.45134864 1 10 C-0.32 10.33 -1.64 10.66 -3 11 C-3.33 12.98 -3.66 14.96 -4 17 C-4.66 17 -5.32 17 -6 17 C-6 16.34 -6 15.68 -6 15 C-6.99 14.67 -7.98 14.34 -9 14 C-8.67 12.02 -8.34 10.04 -8 8 C-7.34 8.33 -6.68 8.66 -6 9 C-6 10.32 -6 11.64 -6 13 C-5.34 13 -4.68 13 -4 13 C-3.86722656 12.43796875 -3.73445312 11.8759375 -3.59765625 11.296875 C-2.97562889 8.90633847 -2.22884959 6.58964225 -1.4375 4.25 C-1.16808594 3.45078125 -0.89867187 2.6515625 -0.62109375 1.828125 C-0.41613281 1.22484375 -0.21117187 0.6215625 0 0 Z " fill="#D3D8D3" transform="translate(613,129)"/>
<path d="M0 0 C2.29296875 0.19140625 2.29296875 0.19140625 5 1 C6.80078125 3.21484375 6.80078125 3.21484375 8.3125 5.9375 C8.82425781 6.83339844 9.33601562 7.72929687 9.86328125 8.65234375 C11 11 11 11 11 13 C8.37812506 11.95125002 7.20628639 11.35068687 5.75 8.875 C5.5025 8.25625 5.255 7.6375 5 7 C4.34 7 3.68 7 3 7 C3 6.01 3 5.02 3 4 C2.34 4 1.68 4 1 4 C0.67 2.68 0.34 1.36 0 0 Z " fill="#575F62" transform="translate(562,121)"/>
<path d="M0 0 C0.33 0 0.66 0 1 0 C1.6976874 8.14684214 2.28162626 15.88303369 1 24 C0.34 24 -0.32 24 -1 24 C-1.18451025 7.1070615 -1.18451025 7.1070615 0 0 Z " fill="#3A4244" transform="translate(148,131)"/>
<path d="M0 0 C0.33 2.64 0.66 5.28 1 8 C0.05125 8.598125 -0.8975 9.19625 -1.875 9.8125 C-5.13964197 11.81562526 -5.13964197 11.81562526 -7 15 C-7.33 13.02 -7.66 11.04 -8 9 C-6.35 9 -4.7 9 -3 9 C-3 6.36 -3 3.72 -3 1 C-1 0 -1 0 0 0 Z " fill="#344248" transform="translate(604,107)"/>
<path d="M0 0 C0.66 0.33 1.32 0.66 2 1 C2 1.66 2 2.32 2 3 C2.99 2.67 3.98 2.34 5 2 C4.67 4.64 4.34 7.28 4 10 C2.02 10.66 0.04 11.32 -2 12 C-2.33 10.68 -2.66 9.36 -3 8 C-1.35 8 0.3 8 2 8 C1.01 5.69 0.02 3.38 -1 1 C-0.67 0.67 -0.34 0.34 0 0 Z " fill="#EDF0E6" transform="translate(617,195)"/>
<path d="M0 0 C1.9375 0.75 1.9375 0.75 4 2 C4.75 4.125 4.75 4.125 5 6 C4.071875 6.061875 3.14375 6.12375 2.1875 6.1875 C-1.19196489 6.67500908 -1.19196489 6.67500908 -2.75 9.5625 C-3.1625 10.366875 -3.575 11.17125 -4 12 C-4.66 12 -5.32 12 -6 12 C-4.68139111 7.38486888 -2.78644563 3.90102388 0 0 Z " fill="#434B4B" transform="translate(375,183)"/>
<path d="M0 0 C8.06350113 -0.12867289 15.97497656 0.20318916 24 1 C24 1.33 24 1.66 24 2 C23.13117188 2.06058594 22.26234375 2.12117187 21.3671875 2.18359375 C20.21476562 2.26738281 19.06234375 2.35117188 17.875 2.4375 C16.73804688 2.51871094 15.60109375 2.59992188 14.4296875 2.68359375 C11.0147009 2.942908 11.0147009 2.942908 7.75 3.62109375 C5 4 5 4 2.125 2.625 C1.42375 2.08875 0.7225 1.5525 0 1 C0 0.67 0 0.34 0 0 Z " fill="#3F4A50" transform="translate(384,217)"/>
<path d="M0 0 C9.9 0 19.8 0 30 0 C30.33 1.65 30.66 3.3 31 5 C30.01 4.67 29.02 4.34 28 4 C27.67 3.34 27.34 2.68 27 2 C18.09 1.67 9.18 1.34 0 1 C0 0.67 0 0.34 0 0 Z " fill="#7A7E79" transform="translate(259,194)"/>
<path d="M0 0 C0.66 0 1.32 0 2 0 C1.03966006 7.04249292 1.03966006 7.04249292 -1 10 C-3.625 11.75 -3.625 11.75 -6 13 C-6.8125 11.3125 -6.8125 11.3125 -7 9 C-4.6875 6.5 -4.6875 6.5 -2 4 C-0.70480005 1.83379456 -0.70480005 1.83379456 0 0 Z " fill="#4A5355" transform="translate(634,149)"/>
<path d="M0 0 C0.66 0.66 1.32 1.32 2 2 C1 5 0 8 -1 11 C-1.66 11 -2.32 11 -3 11 C-3.66 13.31 -4.32 15.62 -5 18 C-5.66 18 -6.32 18 -7 18 C-5.06375702 11.79522136 -2.74390859 5.89174281 0 0 Z " fill="#606B68" transform="translate(412,122)"/>
<path d="M0 0 C0.33 0.66 0.66 1.32 1 2 C1.66 2 2.32 2 3 2 C2.125 6.75 2.125 6.75 1 9 C0.34 9 -0.32 9 -1 9 C-1.33 9.66 -1.66 10.32 -2 11 C-2.66 10.67 -3.32 10.34 -4 10 C-3.43454163 6.04179141 -2.19097652 3.3340947 0 0 Z " fill="#EAF0ED" transform="translate(349,174)"/>
<path d="M0 0 C0.33 0.99 0.66 1.98 1 3 C0.443125 3.20625 -0.11375 3.4125 -0.6875 3.625 C-3.90882715 5.54038371 -5.65432575 8.08375634 -8 11 C-8.33 11 -8.66 11 -9 11 C-9 8.03 -9 5.06 -9 2 C-6.03 2 -3.06 2 0 2 C0 1.34 0 0.68 0 0 Z " fill="#454F4F" transform="translate(721,118)"/>
<path d="M0 0 C1 2 1 2 0.375 5.4375 C-1.16163629 9.41878493 -2.1915187 10.29620573 -6 12 C-5.25 5.25 -5.25 5.25 -3 3 C-2.34 3.33 -1.68 3.66 -1 4 C-0.67 2.68 -0.34 1.36 0 0 Z " fill="#EDEEE8" transform="translate(246,167)"/>
<path d="M0 0 C2.97 0 5.94 0 9 0 C6.702779 1.74271938 4.40133271 3.39911152 2 5 C1.42006301 7.19454681 1.42006301 7.19454681 1.3125 9.625 C1.24675781 10.44226563 1.18101562 11.25953125 1.11328125 12.1015625 C1.07589844 12.72804688 1.03851562 13.35453125 1 14 C1.99 14.33 2.98 14.66 4 15 C2.68 15 1.36 15 0 15 C0 10.05 0 5.1 0 0 Z " fill="#E1E8E1" transform="translate(615,102)"/>
<path d="M0 0 C0.66 0.33 1.32 0.66 2 1 C2.07408587 5.09333905 2.1285704 9.18641933 2.16479492 13.28027344 C2.17989358 14.67324622 2.20037444 16.06617138 2.22631836 17.45898438 C2.26265122 19.45942885 2.27811192 21.46021827 2.29296875 23.4609375 C2.3086792 24.66540527 2.32438965 25.86987305 2.34057617 27.11083984 C2.22818604 28.0642627 2.1157959 29.01768555 2 30 C1.01 30.66 0.02 31.32 -1 32 C-0.75552124 31.21157715 -0.75552124 31.21157715 -0.50610352 30.40722656 C0.12901421 27.38635788 0.11169006 24.57181318 0.09765625 21.484375 C0.09443359 20.23398438 0.09121094 18.98359375 0.08789062 17.6953125 C0.07951172 16.39335937 0.07113281 15.09140625 0.0625 13.75 C0.05573242 11.77386719 0.05573242 11.77386719 0.04882812 9.7578125 C0.03704316 6.50516259 0.02059011 3.25260416 0 0 Z " fill="#DEE6DF" transform="translate(541,170)"/>
<path d="M0 0 C2.64 0.33 5.28 0.66 8 1 C8 2.32 8 3.64 8 5 C5.03 5 2.06 5 -1 5 C-0.67 3.35 -0.34 1.7 0 0 Z " fill="#254050" transform="translate(680,94)"/>
<path d="M0 0 C2.64 0 5.28 0 8 0 C8 4.95 8 9.9 8 15 C7.67 15 7.34 15 7 15 C7 11.04 7 7.08 7 3 C6.67 3.66 6.34 4.32 6 5 C4.68 4.67 3.36 4.34 2 4 C2 3.34 2 2.68 2 2 C1.34 1.34 0.68 0.68 0 0 Z " fill="#E2E5E3" transform="translate(147,201)"/>
<path d="M0 0 C2.23960447 2.87949147 4.29864224 5.76742026 6 9 C5.67 9.66 5.34 10.32 5 11 C3.68 11 2.36 11 1 11 C0.67 11.66 0.34 12.32 0 13 C0.33 10.69 0.66 8.38 1 6 C0.34 5.67 -0.32 5.34 -1 5 C-0.67 3.35 -0.34 1.7 0 0 Z " fill="#495357" transform="translate(346,138)"/>
<path d="M0 0 C3.3 0 6.6 0 10 0 C7 2 7 2 2 4 C1.67 7.63 1.34 11.26 1 15 C0.67 15 0.34 15 0 15 C0 10.05 0 5.1 0 0 Z " fill="#464E4D" transform="translate(194,121)"/>
<path d="M0 0 C0.75410156 0.00451172 1.50820313 0.00902344 2.28515625 0.01367188 C4.14847127 0.02546501 6.01174555 0.04340058 7.875 0.0625 C7.875 0.3925 7.875 0.7225 7.875 1.0625 C7.16472656 1.11148438 6.45445312 1.16046875 5.72265625 1.2109375 C4.34400391 1.32308594 4.34400391 1.32308594 2.9375 1.4375 C2.02097656 1.50710937 1.10445313 1.57671875 0.16015625 1.6484375 C-0.97099609 1.85339844 -0.97099609 1.85339844 -2.125 2.0625 C-2.455 2.7225 -2.785 3.3825 -3.125 4.0625 C-5.435 3.7325 -7.745 3.4025 -10.125 3.0625 C-10.125 2.4025 -10.125 1.7425 -10.125 1.0625 C-6.93675432 -0.53162284 -3.49603338 -0.03924735 0 0 Z " fill="#303C3F" transform="translate(291.125,216.9375)"/>
<path d="M0 0 C2.31 0.66 4.62 1.32 7 2 C6.01 4.31 5.02 6.62 4 9 C0 4.5 0 4.5 0 0 Z " fill="#384851" transform="translate(607,198)"/>
<path d="M0 0 C2.62527189 -0.05382106 5.24944713 -0.09358313 7.875 -0.125 C8.62136719 -0.14175781 9.36773438 -0.15851563 10.13671875 -0.17578125 C12.09194461 -0.1933959 14.04742021 -0.10320189 16 0 C16.66 0.66 17.32 1.32 18 2 C15.36 2.66 12.72 3.32 10 4 C10 3.01 10 2.02 10 1 C9.278125 1.185625 8.55625 1.37125 7.8125 1.5625 C4.87173027 2.01995307 2.85896942 1.73516357 0 1 C0 0.67 0 0.34 0 0 Z " fill="#2A383D" transform="translate(751,218)"/>
<path d="M0 0 C0.33 0 0.66 0 1 0 C1 5.28 1 10.56 1 16 C-1.64 16 -4.28 16 -7 16 C-6.0409375 15.5978125 -6.0409375 15.5978125 -5.0625 15.1875 C-2.66868314 14.11332248 -2.66868314 14.11332248 -2 11 C-1.67 11.66 -1.34 12.32 -1 13 C-0.67 8.71 -0.34 4.42 0 0 Z " fill="#C3CBC7" transform="translate(263,201)"/>
<path d="M0 0 C4.875 1.875 4.875 1.875 6 3 C6.29386153 6.72224599 6.14809171 7.77786243 4 11 C3.34 10.67 2.68 10.34 2 10 C1.4375 7.75 1.4375 7.75 1 5 C0.814375 4.071875 0.62875 3.14375 0.4375 2.1875 C0.293125 1.465625 0.14875 0.74375 0 0 Z " fill="#E2E5E1" transform="translate(513,176)"/>
<path d="M0 0 C0.66 0 1.32 0 2 0 C3.38529821 5.45461169 4.2396943 10.36718401 4 16 C3.34 16 2.68 16 2 16 C0.89485234 12.68455701 0.67892369 9.79589889 0.4375 6.3125 C0.35371094 5.13300781 0.26992188 3.95351562 0.18359375 2.73828125 C0.12300781 1.83464844 0.06242187 0.93101562 0 0 Z " fill="#F3F9EC" transform="translate(303,163)"/>
<path d="M0 0 C0 3.38878512 -0.64361198 4.39757217 -2.4375 7.1875 C-2.88996094 7.90292969 -3.34242188 8.61835938 -3.80859375 9.35546875 C-4.20175781 9.89816406 -4.59492188 10.44085938 -5 11 C-5.33 11 -5.66 11 -6 11 C-5.25 3.25 -5.25 3.25 -3 1 C-2.01 0.67 -1.02 0.34 0 0 Z " fill="#E6EBDD" transform="translate(401,147)"/>
<path d="M0 0 C0.66 0.33 1.32 0.66 2 1 C1.00795408 2.33926199 0.00573778 3.67098936 -1 5 C-2.0209375 6.36125 -2.0209375 6.36125 -3.0625 7.75 C-4.0215625 8.86375 -4.0215625 8.86375 -5 10 C-5.66 10 -6.32 10 -7 10 C-7.33 9.01 -7.66 8.02 -8 7 C-5.36 4.69 -2.72 2.38 0 0 Z " fill="#4E5A58" transform="translate(532,209)"/>
<path d="M0 0 C1.65 0 3.3 0 5 0 C5.33 1.98 5.66 3.96 6 6 C4.02 6 2.04 6 0 6 C0.185625 5.38125 0.37125 4.7625 0.5625 4.125 C1.23686176 1.95839822 1.23686176 1.95839822 0 0 Z " fill="#4A585D" transform="translate(166,194)"/>
<path d="M0 0 C0.99 0.66 1.98 1.32 3 2 C3.66 1.67 4.32 1.34 5 1 C4.67 2.65 4.34 4.3 4 6 C3.01 5.67 2.02 5.34 1 5 C0.67 5.99 0.34 6.98 0 8 C-0.99 7.67 -1.98 7.34 -3 7 C-2.38722388 4.03824877 -1.74627478 2.61941217 0 0 Z " fill="#2B3941" transform="translate(609,125)"/>
<path d="M0 0 C4.72271651 -0.54915308 8.55493675 0.57757976 13 2 C13 2.33 13 2.66 13 3 C8.05 3 3.1 3 -2 3 C-1.34 2.01 -0.68 1.02 0 0 Z " fill="#F7FCF3" transform="translate(163,171)"/>
<path d="M0 0 C2.93200474 2.85276137 5.64315404 5.65079784 8 9 C3.25 9.125 3.25 9.125 1 8 C1 7.01 1 6.02 1 5 C0.34 4.67 -0.32 4.34 -1 4 C-0.34 4 0.32 4 1 4 C0.67 2.68 0.34 1.36 0 0 Z " fill="#E3EADC" transform="translate(529,158)"/>
<path d="M0 0 C0.66 0 1.32 0 2 0 C2 0.66 2 1.32 2 2 C2.99 2.33 3.98 2.66 5 3 C-3.42857143 5.28571429 -3.42857143 5.28571429 -8 5 C-7.34 4.67 -6.68 4.34 -6 4 C-5.67 3.01 -5.34 2.02 -5 1 C-4.01 1 -3.02 1 -2 1 C-1.67 1.33 -1.34 1.66 -1 2 C-0.67 1.34 -0.34 0.68 0 0 Z " fill="#E5EBDA" transform="translate(537,152)"/>
<path d="M0 0 C0.33 0 0.66 0 1 0 C1.02698189 1.62490954 1.04638757 3.24994633 1.0625 4.875 C1.07410156 5.77992188 1.08570313 6.68484375 1.09765625 7.6171875 C1 10 1 10 0 12 C-0.66 12 -1.32 12 -2 12 C-3.47118907 8.17490842 -2.45442741 5.71687005 -1 2 C-0.67 1.34 -0.34 0.68 0 0 Z " fill="#303D43" transform="translate(638,145)"/>
<path d="M0 0 C2.475 0.99 2.475 0.99 5 2 C5.33 4.31 5.66 6.62 6 9 C3 8 3 8 1.3125 5.625 C0 3 0 3 0 0 Z " fill="#EDEDE7" transform="translate(580,143)"/>
<path d="M0 0 C1.32 0.66 2.64 1.32 4 2 C3.34 2.66 2.68 3.32 2 4 C-0.59269983 3.98252112 -3.0525154 3.86231408 -5.625 3.625 C-6.33140625 3.56828125 -7.0378125 3.5115625 -7.765625 3.453125 C-9.51121361 3.31159079 -11.25573673 3.15702613 -13 3 C-13 2.67 -13 2.34 -13 2 C-11.20909747 1.80533668 -9.41723495 1.61948787 -7.625 1.4375 C-6.12839844 1.28087891 -6.12839844 1.28087891 -4.6015625 1.12109375 C-2 1 -2 1 0 2 C0 1.34 0 0.68 0 0 Z " fill="#213C40" transform="translate(719,96)"/>
<path d="M0 0 C1.5234375 1.3671875 1.5234375 1.3671875 3 3 C2.70462173 4.67381019 2.36106097 6.33911955 2 8 C2.1878332 11.02056088 2.57577129 14.00429268 3 17 C0.67775696 12.66514632 -0.13471301 9.16048478 -0.0625 4.25 C-0.05347656 3.45078125 -0.04445313 2.6515625 -0.03515625 1.828125 C-0.02355469 1.22484375 -0.01195312 0.6215625 0 0 Z " fill="#4B5759" transform="translate(311,183)"/>
<path d="M0 0 C1.65 0 3.3 0 5 0 C6.16063604 4.25566547 5.76173392 7.6835078 5 12 C4.67 12 4.34 12 4 12 C4 9.69 4 7.38 4 5 C3.01 5 2.02 5 1 5 C0.67 3.35 0.34 1.7 0 0 Z " fill="#3A5057" transform="translate(287,96)"/>
<path d="M0 0 C3.3 0 6.6 0 10 0 C10 0.99 10 1.98 10 3 C6.37 3 2.74 3 -1 3 C-0.67 2.01 -0.34 1.02 0 0 Z " fill="#2F3A41" transform="translate(240,217)"/>
<path d="M0 0 C0.99 0 1.98 0 3 0 C2.67 0.99 2.34 1.98 2 3 C1.90712229 4.68545724 1.87002796 6.374493 1.875 8.0625 C1.87242187 8.94035156 1.86984375 9.81820312 1.8671875 10.72265625 C1.85166576 13.03198266 1.85166576 13.03198266 3 15 C2.67 15.66 2.34 16.32 2 17 C1.34 17 0.68 17 0 17 C0 11.39 0 5.78 0 0 Z " fill="#FAFCF8" transform="translate(562,200)"/>
<path d="M0 0 C2 3 2 3 1.3125 6.5 C0.15493615 9.58683693 -0.4589912 11.0364932 -3 13 C-4.00821159 10.31143576 -4.22736824 8.58296785 -3.17578125 5.88671875 C-2.16604698 3.89205069 -1.11893353 1.9353228 0 0 Z " fill="#EAEDEA" transform="translate(576,179)"/>
<path d="M0 0 C1.41705815 4.85848508 2.61692164 10.14923508 1 15 C0.34 15 -0.32 15 -1 15 C-1.02703381 13.06257659 -1.04641125 11.12504521 -1.0625 9.1875 C-1.07410156 8.10855469 -1.08570313 7.02960938 -1.09765625 5.91796875 C-1 3 -1 3 0 0 Z " fill="#415257" transform="translate(268,158)"/>
<path d="M0 0 C3.3 0 6.6 0 10 0 C10 4.62 10 9.24 10 14 C9.67 14 9.34 14 9 14 C8.67 10.37 8.34 6.74 8 3 C5.36 2.34 2.72 1.68 0 1 C0 0.67 0 0.34 0 0 Z " fill="#DCEBE0" transform="translate(710,101)"/>
<path d="M0 0 C0.66 0 1.32 0 2 0 C4.09230769 4.43076923 4.09230769 4.43076923 3.625 7.3125 C3.41875 7.869375 3.2125 8.42625 3 9 C1.68 8.34 0.36 7.68 -1 7 C-0.67 4.69 -0.34 2.38 0 0 Z " fill="#4C5555" transform="translate(273,141)"/>
<path d="M0 0 C1.32 0 2.64 0 4 0 C2.25 5.75 2.25 5.75 0 8 C-0.66 7.67 -1.32 7.34 -2 7 C-1.34 4.69 -0.68 2.38 0 0 Z " fill="#3F5153" transform="translate(615,117)"/>
<path d="M0 0 C3.96 0.33 7.92 0.66 12 1 C12 1.33 12 1.66 12 2 C10.7625 2.0825 9.525 2.165 8.25 2.25 C5.01117036 2.63475459 4.12092117 2.90024003 1.5 5.0625 C0.7575 6.0215625 0.7575 6.0215625 0 7 C0 4.69 0 2.38 0 0 Z " fill="#EEF4EF" transform="translate(331,101)"/>
<path d="M0 0 C2.475 0.495 2.475 0.495 5 1 C4.51917969 1.36738281 4.03835938 1.73476562 3.54296875 2.11328125 C1.38795083 4.74840443 1.49327654 6.82505636 1.3125 10.1875 C1.24675781 11.27417969 1.18101562 12.36085937 1.11328125 13.48046875 C1.07589844 14.31191406 1.03851562 15.14335937 1 16 C0.67 16 0.34 16 0 16 C0 10.72 0 5.44 0 0 Z " fill="#F9FCF7" transform="translate(679,199)"/>
<path d="M0 0 C0.33 0 0.66 0 1 0 C1.4375 2.125 1.4375 2.125 1 5 C-1.12689146 7.276147 -3.5023433 9.1458722 -6 11 C-5.28086159 7.65771862 -4.45773756 6.35942806 -2 4 C-0.82425289 1.90010348 -0.82425289 1.90010348 0 0 Z " fill="#EFF2E5" transform="translate(539,198)"/>
<path d="M0 0 C0.99 0.33 1.98 0.66 3 1 C2.67 3.64 2.34 6.28 2 9 C1.67 8.34 1.34 7.68 1 7 C0.34 7 -0.32 7 -1 7 C-0.67 4.69 -0.34 2.38 0 0 Z " fill="#2C3A3D" transform="translate(252,112)"/>
<path d="M0 0 C1.9375 0.625 1.9375 0.625 4 2 C4.875 5 4.875 5 5 8 C4.34 8.66 3.68 9.32 3 10 C-0.22265625 4.82421875 -0.22265625 4.82421875 -1 3 C-0.67 2.01 -0.34 1.02 0 0 Z " fill="#535E60" transform="translate(395,158)"/>
<path d="M0 0 C0.66 0 1.32 0 2 0 C2 1.98 2 3.96 2 6 C0.02 6.66 -1.96 7.32 -4 8 C-2.25 2.25 -2.25 2.25 0 0 Z " fill="#F2F4EE" transform="translate(358,162)"/>
<path d="M0 0 C0.66 0 1.32 0 2 0 C2.66 1.65 3.32 3.3 4 5 C2.68 5.99 1.36 6.98 0 8 C-0.33 7.67 -0.66 7.34 -1 7 C-0.71269945 4.66055264 -0.38063221 2.3260857 0 0 Z " fill="#485054" transform="translate(585,156)"/>
<path d="M0 0 C0.66 0.33 1.32 0.66 2 1 C2 2.32 2 3.64 2 5 C2.66 5 3.32 5 4 5 C4 6.32 4 7.64 4 9 C3.34 9 2.68 9 2 9 C2 8.34 2 7.68 2 7 C1.01 6.67 0.02 6.34 -1 6 C-0.67 4.02 -0.34 2.04 0 0 Z " fill="#BCBFB6" transform="translate(605,137)"/>
<path d="M0 0 C0.66 0.33 1.32 0.66 2 1 C1.67 4.3 1.34 7.6 1 11 C0.67 11 0.34 11 0 11 C0 8.69 0 6.38 0 4 C-1.65 4 -3.3 4 -5 4 C-4 2 -4 2 -1 1 C-0.67 0.67 -0.34 0.34 0 0 Z " fill="#5D666F" transform="translate(369,199)"/>
<path d="M0 0 C0.99 0 1.98 0 3 0 C2.67 1.98 2.34 3.96 2 6 C-0.31 5.67 -2.62 5.34 -5 5 C-3.74458443 2.48916886 -2.49936512 2.12874554 0 1 C0 0.67 0 0.34 0 0 Z " fill="#444A49" transform="translate(233,194)"/>
<path d="M0 0 C2.01822917 0.06510417 4.03645833 0.13020833 6.0546875 0.1953125 C6.0546875 2.1753125 6.0546875 4.1553125 6.0546875 6.1953125 C5.7246875 5.5353125 5.3946875 4.8753125 5.0546875 4.1953125 C4.3946875 4.1953125 3.7346875 4.1953125 3.0546875 4.1953125 C3.0546875 3.2053125 3.0546875 2.2153125 3.0546875 1.1953125 C0.7446875 1.5253125 -1.5653125 1.8553125 -3.9453125 2.1953125 C-1.9453125 0.1953125 -1.9453125 0.1953125 0 0 Z " fill="#DCE8E0" transform="translate(284.9453125,100.8046875)"/>
<path d="M0 0 C1.32 0.66 2.64 1.32 4 2 C3.67 2.66 3.34 3.32 3 4 C2.34 4 1.68 4 1 4 C1 4.99 1 5.98 1 7 C-0.32 7 -1.64 7 -3 7 C-1.125 2.25 -1.125 2.25 0 0 Z " fill="#4A5655" transform="translate(600,194)"/>
<path d="M0 0 C1.45606519 4.52092968 0.27032841 7.51648796 -1 12 C-1.99 11.67 -2.98 11.34 -4 11 C-3.71125 10.29875 -3.4225 9.5975 -3.125 8.875 C-1.97866412 5.94547497 -0.97374346 2.99078347 0 0 Z " fill="#2B3434" transform="translate(238,178)"/>
<path d="M0 0 C0.66 0 1.32 0 2 0 C0.68775452 3.93673644 -0.91910327 6.22719294 -4 9 C-3.67 7.02 -3.34 5.04 -3 3 C-2.34 3 -1.68 3 -1 3 C-0.67 2.01 -0.34 1.02 0 0 Z " fill="#E4E9DE" transform="translate(632,149)"/>
<path d="M0 0 C0.33 0 0.66 0 1 0 C1.33 2.97 1.66 5.94 2 9 C1.01 9.33 0.02 9.66 -1 10 C-1.33 10.66 -1.66 11.32 -2 12 C-1.44687265 7.97007218 -0.8441938 3.97977076 0 0 Z " fill="#C7CDC2" transform="translate(252,128)"/>
<path d="M0 0 C2.15377564 2.62198774 3.40072174 4.64404172 4 8 C2.02 8.99 2.02 8.99 0 10 C-1.125 3.375 -1.125 3.375 0 0 Z " fill="#DCDCD3" transform="translate(369,126)"/>
<path d="M0 0 C2.40034102 3.60051153 4.32187705 6.96144535 3.625 11.375 C3.41875 11.91125 3.2125 12.4475 3 13 C-0.36055646 8.51925805 -0.27429625 5.39449293 0 0 Z " fill="#BEC6BF" transform="translate(291,108)"/>
<path d="M0 0 C1.45742463 -0.08096803 2.91612807 -0.13917774 4.375 -0.1875 C5.18710937 -0.22230469 5.99921875 -0.25710937 6.8359375 -0.29296875 C7.55007813 -0.19628906 8.26421875 -0.09960938 9 0 C9.66 0.99 10.32 1.98 11 3 C8.69 3.33 6.38 3.66 4 4 C4.33 3.34 4.66 2.68 5 2 C3.35 1.67 1.7 1.34 0 1 C0 0.67 0 0.34 0 0 Z " fill="#283943" transform="translate(360,218)"/>
<path d="M0 0 C0.33 0 0.66 0 1 0 C1.33 2.97 1.66 5.94 2 9 C0.35 9 -1.3 9 -3 9 C-2.01 6.03 -1.02 3.06 0 0 Z " fill="#F2F6EF" transform="translate(153,208)"/>
<path d="M0 0 C1.65 0 3.3 0 5 0 C5 3.63 5 7.26 5 11 C4.67 11 4.34 11 4 11 C3.87882812 10.28972656 3.75765625 9.57945312 3.6328125 8.84765625 C3.46523438 7.92855469 3.29765625 7.00945312 3.125 6.0625 C2.96257812 5.14597656 2.80015625 4.22945312 2.6328125 3.28515625 C2.42398437 2.53105469 2.21515625 1.77695313 2 1 C1.34 0.67 0.68 0.34 0 0 Z " fill="#D8DEDE" transform="translate(364,203)"/>
<path d="M0 0 C2.72426311 2.35277269 3.8141763 4.62496331 5 8 C3.68 8 2.36 8 1 8 C-0.35439668 5.29120665 -0.06501451 2.99066732 0 0 Z " fill="#6D7572" transform="translate(608,183)"/>
<path d="M0 0 C1.45606519 4.52092968 0.27032841 7.51648796 -1 12 C-1.33 12 -1.66 12 -2 12 C-2 8.37 -2 4.74 -2 1 C-1.34 0.67 -0.68 0.34 0 0 Z " fill="#525858" transform="translate(247,146)"/>
<path d="M0 0 C0.99 0 1.98 0 3 0 C3.185625 1.7015625 3.185625 1.7015625 3.375 3.4375 C3.684375 5.2009375 3.684375 5.2009375 4 7 C4.66 7.33 5.32 7.66 6 8 C5.34 8.66 4.68 9.32 4 10 C3.32845067 8.71086513 2.66291141 7.41859796 2 6.125 C1.62875 5.40570313 1.2575 4.68640625 0.875 3.9453125 C0 2 0 2 0 0 Z " fill="#47504E" transform="translate(599,124)"/>
<path d="M0 0 C0.99 0.33 1.98 0.66 3 1 C3 3.31 3 5.62 3 8 C1.68 8 0.36 8 -1 8 C-0.67 5.36 -0.34 2.72 0 0 Z " fill="#F0F4DE" transform="translate(708,120)"/>
<path d="M0 0 C-0.33 2.97 -0.66 5.94 -1 9 C-3 8 -3 8 -3.6875 6.125 C-4 4 -4 4 -3 1 C-1 0 -1 0 0 0 Z " fill="#263537" transform="translate(253,123)"/>
<path d="M0 0 C0.66 0 1.32 0 2 0 C2 1.98 2 3.96 2 6 C-0.97 6 -3.94 6 -7 6 C-7 5.67 -7 5.34 -7 5 C-4.36 5 -1.72 5 1 5 C0.34 4.67 -0.32 4.34 -1 4 C-0.67 2.68 -0.34 1.36 0 0 Z " fill="#E2E6DB" transform="translate(201,115)"/>
<path d="M0 0 C0.33 0 0.66 0 1 0 C1 2.97 1 5.94 1 9 C0.01 9.33 -0.98 9.66 -2 10 C-1.85950482 8.52031676 -1.71245174 7.04125484 -1.5625 5.5625 C-1.48128906 4.73878906 -1.40007812 3.91507813 -1.31640625 3.06640625 C-1 1 -1 1 0 0 Z " fill="#404849" transform="translate(118,207)"/>
<path d="M0 0 C1.0326802 2.78823655 1.04509293 3.8677274 0.0625 6.75 C-0.288125 7.4925 -0.63875 8.235 -1 9 C-1.99 9 -2.98 9 -4 9 C-2.80100302 5.9168649 -1.52299523 2.93720508 0 0 Z " fill="#E1E6E3" transform="translate(354,165)"/>
<path d="M0 0 C1.875 0.3125 1.875 0.3125 4 1 C4.66 1.99 5.32 2.98 6 4 C5.01 5.485 5.01 5.485 4 7 C0 2.25 0 2.25 0 0 Z " fill="#646F6D" transform="translate(530,157)"/>
<path d="M0 0 C1.98 0 3.96 0 6 0 C5.0409375 0.495 5.0409375 0.495 4.0625 1 C0.9447236 4.02329832 1.27956936 6.73656724 1 11 C0.67 11 0.34 11 0 11 C0 7.37 0 3.74 0 0 Z " fill="#F2F7EE" transform="translate(120,102)"/>
<path d="M0 0 C1.46726798 3.81489674 0.43336419 6.29011622 -1 10 C-1.66 9.67 -2.32 9.34 -3 9 C-2.67 7.68 -2.34 6.36 -2 5 C-2.66 4.67 -3.32 4.34 -4 4 C-2.68 3.67 -1.36 3.34 0 3 C0 2.01 0 1.02 0 0 Z " fill="#2C3638" transform="translate(569,189)"/>
<path d="M0 0 C0.6875 1.625 0.6875 1.625 1 4 C-0.4375 7.25 -0.4375 7.25 -2 10 C-2.93423645 6.98968256 -3.04449911 6.13349732 -2 3 C-1.34 3 -0.68 3 0 3 C0 2.01 0 1.02 0 0 Z " fill="#F3F9EE" transform="translate(403,138)"/>
<path d="M0 0 C1.65 0 3.3 0 5 0 C5.33 0.99 5.66 1.98 6 3 C3.69 3 1.38 3 -1 3 C-0.67 2.01 -0.34 1.02 0 0 Z " fill="#1F3C4B" transform="translate(697,96)"/>
<path d="M0 0 C0 0.66 0 1.32 0 2 C-6.93 1.505 -6.93 1.505 -14 1 C-14 0.67 -14 0.34 -14 0 C-12.04235617 -0.19456705 -10.08384679 -0.38044247 -8.125 -0.5625 C-6.48917969 -0.71912109 -6.48917969 -0.71912109 -4.8203125 -0.87890625 C-2 -1 -2 -1 0 0 Z " fill="#D3DBDC" transform="translate(318,216)"/>
<path d="M0 0 C1.65 0 3.3 0 5 0 C3.68 0.33 2.36 0.66 1 1 C1 1.66 1 2.32 1 3 C1.66 3 2.32 3 3 3 C2.34 4.65 1.68 6.3 1 8 C0.67 8 0.34 8 0 8 C0 5.36 0 2.72 0 0 Z " fill="#E0E5E2" transform="translate(331,200)"/>
<path d="M0 0 C1.32 0 2.64 0 4 0 C3.60196439 2.88575819 3.20990931 3.82189513 0.9375 5.75 C0.298125 6.1625 -0.34125 6.575 -1 7 C-0.7525 6.1028125 -0.7525 6.1028125 -0.5 5.1875 C0.1114124 2.88655664 0.1114124 2.88655664 0 0 Z " fill="#EBEEE2" transform="translate(681,199)"/>
<path d="M0 0 C1.5 1.3125 1.5 1.3125 3 3 C3 3.99 3 4.98 3 6 C1.35 6 -0.3 6 -2 6 C-1.34 4.02 -0.68 2.04 0 0 Z " fill="#6B736E" transform="translate(616,197)"/>
<path d="M0 0 C0.33 0.66 0.66 1.32 1 2 C0.06421005 4.35981813 -0.93347808 6.69631264 -2 9 C-2.66 9 -3.32 9 -4 9 C-2.94124926 5.59687262 -1.99097846 2.98646769 0 0 Z " fill="#6F7974" transform="translate(373,186)"/>
<path d="M0 0 C0.66 0.99 1.32 1.98 2 3 C1.34 3 0.68 3 0 3 C0 4.65 0 6.3 0 8 C-0.99 8 -1.98 8 -3 8 C-1.125 2.25 -1.125 2.25 0 0 Z " fill="#E5EEEC" transform="translate(618,119)"/>
<path d="M0 0 C7.42857143 -0.14285714 7.42857143 -0.14285714 11 1 C10.67 1.99 10.34 2.98 10 4 C9.46375 3.690625 8.9275 3.38125 8.375 3.0625 C5.6015043 1.82172561 2.99957163 1.4090325 0 1 C0 0.67 0 0.34 0 0 Z " fill="#EAEDE7" transform="translate(504,121)"/>
<path d="M0 0 C1.65 0 3.3 0 5 0 C5 0.66 5 1.32 5 2 C3.66666667 3.33333333 2.33333333 4.66666667 1 6 C0.67 4.02 0.34 2.04 0 0 Z " fill="#69716F" transform="translate(596,116)"/>
</svg>
