<?xml version="1.0" encoding="UTF-8"?>
<svg version="1.1" xmlns="http://www.w3.org/2000/svg" width="740" height="327">
<path d="M0 0 C244.2 0 488.4 0 740 0 C740 107.91 740 215.82 740 327 C495.8 327 251.6 327 0 327 C0 219.09 0 111.18 0 0 Z " fill="#2D2C2F" transform="translate(0,0)"/>
<path d="M0 0 C8.58 0 17.16 0 26 0 C25.3615835 7.66099797 24.65564192 15.20991286 23.625 22.8125 C23.42982788 24.28783203 23.42982788 24.28783203 23.23071289 25.79296875 C22.56851024 30.79468681 21.89172412 35.79428552 21.20703125 40.79296875 C19.64407658 52.31668178 18.40393258 63.82251375 17.46875 75.4140625 C17.18133246 78.956849 16.85376525 82.4899461 16.46875 86.0234375 C15.22043039 97.59119918 14.70405044 109.09660227 14.39648438 120.72680664 C14.11465317 130.812779 13.59128028 140.86902827 12.9375 150.9375 C12.89125488 151.64983795 12.84500977 152.3621759 12.79736328 153.09609985 C12.53813202 157.06454075 12.27010952 161.03227474 12 165 C-1.365 165.495 -1.365 165.495 -15 166 C-15.24745972 119.6425465 -15.24745972 119.6425465 -12 103 C-12.61818604 102.97494385 -13.23637207 102.9498877 -13.87329102 102.92407227 C-25.92776381 102.43070591 -37.9677943 101.89338652 -50 101 C-49.97679688 101.81855469 -49.95359375 102.63710937 -49.9296875 103.48046875 C-49.77518008 113.95386458 -50.44333795 124.30262003 -51.21386719 134.74560547 C-52.06952163 146.48877752 -52.59454525 158.2335714 -53 170 C-55.62420204 170.34096361 -58.24906659 170.67286351 -60.875 171 C-61.96554688 171.14308594 -61.96554688 171.14308594 -63.078125 171.2890625 C-67.17048983 171.79163362 -71.16795648 172.0513118 -75.29345703 172.02734375 C-76.62209274 172.02142212 -76.62209274 172.02142212 -77.97756958 172.01538086 C-78.64497162 172.01030518 -79.31237366 172.00522949 -80 172 C-80.28927491 156.59847456 -79.45157421 141.56565152 -77.875 126.25 C-77.46430314 122.25630525 -77.06756731 118.26159289 -76.6796875 114.265625 C-76.58186981 113.3606427 -76.48405212 112.4556604 -76.38327026 111.52325439 C-76.30303619 110.69348083 -76.22280212 109.86370728 -76.14013672 109.00878906 C-76.06463593 108.28016663 -75.98913513 107.55154419 -75.91134644 106.80084229 C-75.81069036 104.74165398 -75.81069036 104.74165398 -78 103 C-78 102.01 -78 101.02 -78 100 C-76.02 99.505 -76.02 99.505 -74 99 C-74.03609375 97.81277344 -74.0721875 96.62554687 -74.109375 95.40234375 C-74.10416582 88.72287047 -73.13987629 82.17172375 -72.25 75.5625 C-72.0683125 74.18800523 -71.88675517 72.81349325 -71.70532227 71.43896484 C-62.8414938 4.8414938 -62.8414938 4.8414938 -59 1 C-57.14630389 0.91262355 -55.28932459 0.89301847 -53.43359375 0.90234375 C-52.30888672 0.90556641 -51.18417969 0.90878906 -50.02539062 0.91210938 C-48.84138672 0.92048828 -47.65738281 0.92886719 -46.4375 0.9375 C-45.24962891 0.94201172 -44.06175781 0.94652344 -42.83789062 0.95117188 C-39.89187774 0.96300325 -36.94596319 0.97948713 -34 1 C-34.55917943 6.17640389 -35.13312853 11.34594558 -35.875 16.5 C-36.01679687 17.5209375 -36.15859375 18.541875 -36.3046875 19.59375 C-36.86313441 22.32951237 -37.55698252 24.63618672 -38.50390625 27.23828125 C-40.26700563 32.34804426 -40.69789861 37.32022832 -41.0625 42.6875 C-41.21461275 44.62131885 -41.36956453 46.55491647 -41.52734375 48.48828125 C-41.6032373 49.42365723 -41.67913086 50.3590332 -41.75732422 51.32275391 C-42.2642135 56.91485433 -43.11084333 62.45695947 -44 68 C-43.37134033 67.93941406 -42.74268066 67.87882812 -42.0949707 67.81640625 C-19.00355521 65.61983878 -19.00355521 65.61983878 -8 66 C-7.96261719 65.1234375 -7.92523438 64.246875 -7.88671875 63.34375 C-7.2370675 50.8093023 -5.6571041 38.43606055 -4 26 C-3.79407227 24.43523926 -3.79407227 24.43523926 -3.58398438 22.83886719 C-3.18475902 19.8087278 -2.78115493 16.77921778 -2.375 13.75 C-2.25205566 12.82751465 -2.12911133 11.9050293 -2.00244141 10.95458984 C-1.88562012 10.09816895 -1.76879883 9.24174805 -1.6484375 8.359375 C-1.49640869 7.23740723 -1.49640869 7.23740723 -1.34130859 6.09277344 C-1.00657792 4.04033328 -0.50436653 2.01746614 0 0 Z " fill="#F8F2E9" transform="translate(151,73)"/>
<path d="M0 0 C0.76554199 0.00141495 1.53108398 0.0028299 2.31982422 0.00428772 C4.73409142 0.00982772 7.14826144 0.02236846 9.5625 0.03515625 C11.21223823 0.04017902 12.86197794 0.04474056 14.51171875 0.04882812 C18.52868255 0.05977739 22.54557487 0.07699959 26.5625 0.09765625 C26.71791818 4.47235327 26.86180206 8.84738542 27 13.22265625 C27.0227298 13.94071442 27.04545959 14.65877258 27.06887817 15.39859009 C27.41304511 26.52755427 27.63038813 37.65583464 27.78125 48.7890625 C27.79885376 50.08376968 27.81645752 51.37847687 27.83459473 52.7124176 C27.85244019 54.02637009 27.87028564 55.34032257 27.88867188 56.6940918 C28.30122763 87.56332673 28.30122763 87.56332673 29.5 118.41015625 C29.53761444 119.16356293 29.57522888 119.9169696 29.61398315 120.69320679 C30.05619084 129.33085269 30.79546609 137.88678438 31.90525818 146.46394348 C32.36657646 150.07659488 32.5625 153.43433873 32.5625 157.09765625 C23.3225 157.42765625 14.0825 157.75765625 4.5625 158.09765625 C2.83208004 146.30917028 2.32958649 135.00212444 2.5625 123.09765625 C-2.7175 123.09765625 -7.9975 123.09765625 -13.4375 123.09765625 C-13.48648438 124.763125 -13.53546875 126.42859375 -13.5859375 128.14453125 C-13.66104301 130.37892025 -13.73658737 132.61329453 -13.8125 134.84765625 C-13.8434375 135.93949219 -13.874375 137.03132812 -13.90625 138.15625 C-13.94492188 139.24550781 -13.98359375 140.33476562 -14.0234375 141.45703125 C-14.0548584 142.44155273 -14.0862793 143.42607422 -14.11865234 144.44042969 C-14.57689137 149.69649445 -15.57013057 154.89343968 -16.4375 160.09765625 C-29.8025 160.59265625 -29.8025 160.59265625 -43.4375 161.09765625 C-43.4375 154.20332333 -43.1981879 147.98180818 -42.1953125 141.25 C-42.06687958 140.35326065 -41.93844666 139.4565213 -41.80612183 138.53260803 C-41.53537359 136.65235967 -41.26125614 134.77259358 -40.98388672 132.89331055 C-40.56321526 130.04000766 -40.15380154 127.18525924 -39.74609375 124.33007812 C-39.47982681 122.49078973 -39.21292116 120.65159366 -38.9453125 118.8125 C-38.8243924 117.97162338 -38.70347229 117.13074677 -38.57888794 116.26438904 C-37.87032796 111.49286534 -36.98524996 106.80722241 -35.88111877 102.11091614 C-35.13432448 98.72176517 -34.71412512 95.2841411 -34.25 91.84765625 C-32.78616454 81.58251008 -30.87042331 71.40742741 -28.9375 61.22265625 C-28.7880191 60.43209839 -28.63853821 59.64154053 -28.48452759 58.82702637 C-26.79312112 49.89858434 -25.00735226 41.00191434 -23.07617188 32.12207031 C-22.25501343 28.23349586 -21.5780381 24.33168908 -20.9375 20.41015625 C-19.82699499 13.84808117 -18.37858715 7.47158072 -16.4375 1.09765625 C-10.90807185 0.3112366 -5.58023002 -0.03976457 0 0 Z " fill="#F8F3EA" transform="translate(227.4375,72.90234375)"/>
<path d="M0 0 C0.76412704 0.00141495 1.52825409 0.0028299 2.3155365 0.00428772 C4.71951471 0.0098168 7.12339443 0.02235515 9.52734375 0.03515625 C11.17252468 0.04018045 12.8177071 0.04474173 14.46289062 0.04882812 C18.46357873 0.05976283 22.46419463 0.07697695 26.46484375 0.09765625 C27.09007978 10.76465386 27.51251425 21.42032733 27.74072266 32.10375977 C28.04860999 46.50705351 28.51577423 60.89453202 29.1953125 75.28515625 C29.22877525 75.99754833 29.26223801 76.70994041 29.29671478 77.44392014 C29.63470997 84.62950491 29.98011194 91.81463702 30.34487915 98.99891472 C31.27342553 117.40164051 31.59755215 135.66849811 31.46484375 154.09765625 C22.88484375 154.09765625 14.30484375 154.09765625 5.46484375 154.09765625 C3.85098309 130.45939795 3.16860574 106.95610317 3.26922607 83.26513672 C3.28019944 79.99721823 3.27968944 76.72934046 3.27908802 73.46140671 C3.27936204 70.24740464 3.28487557 67.03342848 3.29208946 63.81943512 C3.29521136 62.31906578 3.29722783 60.81869362 3.29798317 59.31832123 C3.30834832 49.53700443 3.69740835 39.8469302 4.46484375 30.09765625 C3.14484375 30.09765625 1.82484375 30.09765625 0.46484375 30.09765625 C0.48985962 30.97925415 0.48985962 30.97925415 0.51538086 31.87866211 C0.62112785 38.59458149 -0.05885102 45.01564537 -0.97265625 51.66015625 C-2.06125187 60.07332989 -2.76440995 68.36845589 -2.97265625 76.84765625 C-3.36630322 91.37521512 -5.09650103 105.73539876 -6.74964905 120.16148376 C-7.65434313 128.07175239 -8.4755974 135.98961996 -9.28515625 143.91015625 C-9.69765625 147.93203125 -10.11015625 151.95390625 -10.53515625 156.09765625 C-19.11515625 156.09765625 -27.69515625 156.09765625 -36.53515625 156.09765625 C-36.41520456 152.16477213 -36.29252905 148.23212162 -36.1628418 144.29956055 C-36.09828619 142.30462306 -36.03837795 140.30953696 -35.97851562 138.31445312 C-35.93662109 137.06083984 -35.89472656 135.80722656 -35.8515625 134.515625 C-35.81490479 133.35828857 -35.77824707 132.20095215 -35.74047852 131.00854492 C-35.53515625 128.09765625 -35.53515625 128.09765625 -34.53515625 125.09765625 C-34.18859858 122.38926434 -33.87751565 119.68798631 -33.59765625 116.97265625 C-32.65156402 108.00534732 -31.60430724 99.05099523 -30.53515625 90.09765625 C-30.40422577 88.99887146 -30.27329529 87.90008667 -30.13839722 86.76800537 C-29.27060121 79.49884713 -28.39249183 72.23106102 -27.50094509 64.96478081 C-27.06890921 61.44164248 -26.64039636 57.9181573 -26.22045898 54.39355469 C-24.08068148 36.45712913 -21.43068275 18.7543478 -17.53515625 1.09765625 C-11.64612623 0.36438194 -5.93031969 -0.0425626 0 0 Z " fill="#F7F1E8" transform="translate(304.53515625,72.90234375)"/>
<path d="M0 0 C8.58 0 17.16 0 26 0 C26.433125 2.454375 26.86625 4.90875 27.3125 7.4375 C28.26824088 12.65020477 29.34443368 17.64232436 31.171875 22.62890625 C32.31453529 25.90057982 33.24656108 29.22867398 34.1875 32.5625 C34.53167969 33.78066406 34.87585938 34.99882813 35.23046875 36.25390625 C35.48441406 37.16011719 35.73835938 38.06632812 36 39 C36.33 39 36.66 39 37 39 C37.17015625 37.86304688 37.3403125 36.72609375 37.515625 35.5546875 C38.86905404 26.82668366 40.50166282 18.4597798 43.1328125 10.015625 C44.19420088 6.54154759 44.19420088 6.54154759 45 1 C53.91 1 62.82 1 72 1 C71.01 3.97 70.02 6.94 69 10 C68.33076392 12.38940183 67.68374535 14.78517357 67.0625 17.1875 C64.76463175 25.96158031 62.28159565 34.678019 59.70703125 43.375 C59.37529907 44.49672607 59.37529907 44.49672607 59.03686523 45.64111328 C58.60974186 47.08271376 58.18098714 48.52383237 57.75024414 49.96435547 C52.82911171 66.54647554 54.40047073 78.10709098 60.5390625 94.05078125 C61.99293195 97.86174533 63.05180328 101.67223469 64.0625 105.625 C64.94285348 109.05448946 65.81450204 112.44716408 66.94091797 115.80419922 C68.6579303 120.98531757 70.06342855 126.25231444 71.51391602 131.51318359 C72.0612356 133.49542072 72.61350384 135.47623599 73.16601562 137.45703125 C73.68905273 139.35001953 73.68905273 139.35001953 74.22265625 141.28125 C74.53984619 142.42658203 74.85703613 143.57191406 75.18383789 144.75195312 C75.95611915 147.82536919 76.52786798 150.86786494 77 154 C72.52084672 154.02886338 68.04171709 154.04675187 63.5625 154.0625 C62.28310547 154.07087891 61.00371094 154.07925781 59.68554688 154.08789062 C58.47060547 154.09111328 57.25566406 154.09433594 56.00390625 154.09765625 C54.31503296 154.10551147 54.31503296 154.10551147 52.59204102 154.11352539 C50 154 50 154 49 153 C48.57128317 150.79781426 48.18425639 148.5875138 47.8125 146.375 C46.38137547 138.26217231 44.33189132 130.35823065 42.20581055 122.40356445 C40.22850354 114.97637889 38.49012599 107.54212891 37 100 C34.70711095 104.86092479 33.97208764 109.93637014 33.0625 115.1875 C32.88992676 116.15840576 32.71735352 117.12931152 32.53955078 118.12963867 C31.31659195 125.05163093 30.1426941 131.9824479 29.03930664 138.92456055 C28.21579785 144.02174319 27.12572822 148.93422299 26 154 C17.09 154 8.18 154 -1 154 C1.5329949 138.80203062 4.77388867 123.62198273 9.09790039 108.82958984 C11.95658677 98.92329629 14.13786159 88.82968203 16.34082031 78.76049805 C17 76 17 76 17.72949219 73.87426758 C19.8925361 67.48966649 17.83678509 62.18370298 15.875 55.9375 C15.20630401 53.69422707 14.53833145 51.45073836 13.87109375 49.20703125 C13.5447998 48.13275879 13.21850586 47.05848633 12.88232422 45.95166016 C11.80914556 42.36153012 10.86213021 38.75605857 9.9375 35.125 C8.22476844 28.60030833 6.21002233 22.18892145 4.10522461 15.78173828 C3.73989624 14.65614502 3.73989624 14.65614502 3.3671875 13.5078125 C3.15175293 12.85441895 2.93631836 12.20102539 2.71435547 11.52783203 C1.64079657 7.72891583 0.85637521 3.85368843 0 0 Z " fill="#F8F2E9" transform="translate(408,73)"/>
<path d="M0 0 C7.92 0 15.84 0 24 0 C24.53109375 1.67707031 25.0621875 3.35414062 25.609375 5.08203125 C26.32279792 7.3255586 27.03634629 9.56904605 27.75 11.8125 C28.09804688 12.91271484 28.44609375 14.01292969 28.8046875 15.14648438 C31.03982217 22.16232375 33.42357813 29.10208991 36 36 C36.9828824 31.99916706 37.96131227 27.99727311 38.93579102 23.99438477 C39.26727802 22.6353687 39.59993885 21.27663835 39.93383789 19.91821289 C40.41608444 17.95534689 40.89397235 15.99146101 41.37109375 14.02734375 C41.65911865 12.84906006 41.94714355 11.67077637 42.24389648 10.45678711 C43.00390548 6.98214477 43.54129032 3.52596152 44 0 C46.66673742 -0.02727345 49.33318869 -0.04696948 52 -0.0625 C52.74378906 -0.07087891 53.48757813 -0.07925781 54.25390625 -0.08789062 C59.26148844 -0.10966272 64.04279032 0.28458451 69 1 C68.33817591 6.20589463 67.31168725 11.2182308 66.0625 16.3125 C64.97190896 20.786826 63.9355508 25.25487719 63.0625 29.77734375 C61.90723437 35.65792341 60.42468156 41.44601163 58.9375 47.25 C54.29561645 63.63739969 54.29561645 63.63739969 57.9296875 79.65625 C59.01810311 82.03964185 59.74263227 84.35111263 60.4375 86.875 C61.44028593 90.3927945 62.66840079 93.57785506 64.25 96.875 C66.63170351 101.93700865 68.49969362 107.09078646 70.3125 112.375 C72.7957787 119.61184668 75.38761809 126.79265542 78.125 133.9375 C78.46055908 134.81365967 78.79611816 135.68981934 79.1418457 136.5925293 C80.62243747 140.44629921 82.11358433 144.29577774 83.6171875 148.140625 C84.07351563 149.31109375 84.52984375 150.4815625 85 151.6875 C85.5878125 153.17830078 85.5878125 153.17830078 86.1875 154.69921875 C87 157 87 157 87 159 C84.20826484 159.02736995 81.41680696 159.04701454 78.625 159.0625 C77.85027344 159.07087891 77.07554687 159.07925781 76.27734375 159.08789062 C70.46215914 159.11192031 64.77431417 158.67623669 59 158 C58.6596875 156.85789063 58.319375 155.71578125 57.96875 154.5390625 C49.80004678 127.03436574 49.80004678 127.03436574 40.91015625 99.7578125 C40.16937979 97.51322803 39.52821997 95.30192704 39 93 C38.34 93 37.68 93 37 93 C36.86464844 93.99644531 36.72929688 94.99289063 36.58984375 96.01953125 C36.12972103 99.24524219 35.55544264 102.44095775 34.94726562 105.64233398 C33.4586265 113.55497987 32.49723408 121.42492106 31.77416992 129.44116211 C30.96806122 138.04049198 29.53886699 146.50545423 28 155 C19.26478031 155.1162973 10.69327426 154.857806 2 154 C2.42182842 144.26457084 3.78463019 135.2894863 6.0625 125.8125 C6.37245258 124.49031342 6.68134435 123.16787778 6.98925781 121.84521484 C7.64299675 119.04079852 8.30190975 116.23766072 8.96337891 113.43505859 C10.05171412 108.80334243 11.09645045 104.16224137 12.13671875 99.51953125 C12.66818186 97.15654632 13.20001068 94.79364394 13.73190308 92.43075562 C14.07364117 90.90987316 14.4142626 89.38873931 14.75369263 87.86734009 C15.23241213 85.72563151 15.71586971 83.58509448 16.203125 81.4453125 C16.35438339 80.7797081 16.50564178 80.1141037 16.66148376 79.42832947 C17.50494297 75.81453836 18.51686834 72.34874756 19.796875 68.8671875 C21.0866577 65.2142488 21.07888735 62.79705499 20 59 C19.71382813 57.97261719 19.42765625 56.94523437 19.1328125 55.88671875 C18.80023438 54.83097656 18.46765625 53.77523437 18.125 52.6875 C17.7640625 51.54152344 17.403125 50.39554688 17.03125 49.21484375 C16.52078125 47.62349609 16.52078125 47.62349609 16 46 C15.7628125 45.25878906 15.525625 44.51757812 15.28125 43.75390625 C14.54150908 41.49505451 13.77485453 39.24707814 13 37 C12.36964844 35.16888672 12.36964844 35.16888672 11.7265625 33.30078125 C8.73670929 24.69279939 5.571203 16.17356216 2.18457031 7.71313477 C0 2.20789416 0 2.20789416 0 0 Z " fill="#F7F1E9" transform="translate(487,73)"/>
<path d="M0 0 C8.91 0 17.82 0 27 0 C27.598125 4.186875 28.19625 8.37375 28.8125 12.6875 C29.01141846 14.07775391 29.21033691 15.46800781 29.4152832 16.90039062 C30.21420231 22.48480082 31.01190013 28.06931212 31.79296875 33.65625 C32.77823404 40.67878545 33.77249947 47.69537115 34.93359375 54.69140625 C37.17977508 68.22702302 39.02958912 81.76606381 40.60522461 95.39355469 C41.45215525 102.68901973 42.40145361 109.95121967 43.56738281 117.20336914 C44.74635461 124.82476981 45.14758199 132.29294029 45 140 C46.30324219 140.07347656 46.30324219 140.07347656 47.6328125 140.1484375 C48.78523437 140.22320312 49.93765625 140.29796875 51.125 140.375 C52.26195312 140.44460937 53.39890625 140.51421875 54.5703125 140.5859375 C57.95393616 140.99443876 60.81612441 141.80967569 64 143 C65.83717315 150.41430591 66.23576736 157.37685526 66 165 C50.46255747 164.72697785 35.25716845 161.70427351 20 159 C19.97083496 158.25169922 19.94166992 157.50339844 19.91162109 156.73242188 C19.11399758 137.89385091 17.36575345 119.26921919 15 100.5625 C14.86857605 99.51562012 14.7371521 98.46874023 14.60174561 97.39013672 C14.21954081 94.36476895 13.83040892 91.34040111 13.4375 88.31640625 C13.32290436 87.42268814 13.20830872 86.52897003 13.09024048 85.60816956 C12.4025725 80.43218288 11.5075317 75.33890354 10.45059204 70.22581482 C9.90929126 67.55192095 9.48661773 64.87300795 9.10546875 62.171875 C8.95698486 61.13933594 8.80850098 60.10679687 8.65551758 59.04296875 C8.50107178 57.95628906 8.34662598 56.86960938 8.1875 55.75 C7.0876786 48.13789636 5.94528821 40.53675526 4.6640625 32.953125 C4.55159683 32.28706238 4.43913116 31.62099976 4.32325745 30.93475342 C3.77681045 27.71013424 3.22325575 24.48687071 2.6628418 21.26464844 C2.46086182 20.08418945 2.25888184 18.90373047 2.05078125 17.6875 C1.87200439 16.66011719 1.69322754 15.63273437 1.5090332 14.57421875 C0.82040579 9.73896437 0.44218063 4.86398693 0 0 Z " fill="#F8F2E9" transform="translate(564,74)"/>
<path d="M0 0 C3.95831809 -0.02892857 7.91660917 -0.04677427 11.875 -0.0625 C13.56689453 -0.07506836 13.56689453 -0.07506836 15.29296875 -0.08789062 C16.36933594 -0.09111328 17.44570313 -0.09433594 18.5546875 -0.09765625 C19.54968262 -0.10289307 20.54467773 -0.10812988 21.56982422 -0.11352539 C24 0 24 0 26 1 C26.5625 3.6953125 26.5625 3.6953125 27 7.125 C27.45113241 10.61322021 27.95684708 13.8550097 28.96118164 17.22949219 C30.02130179 21.07731722 30.66754381 24.87347963 31.18359375 28.8203125 C31.28358673 29.55254532 31.38357971 30.28477814 31.48660278 31.03919983 C31.69865766 32.59657753 31.90840492 34.15427095 32.11599731 35.71224976 C32.44174817 38.15688083 32.77362586 40.60061134 33.10717773 43.04418945 C33.5458677 46.26078927 33.98250881 49.47765352 34.41699219 52.69482422 C36.18002004 65.73505297 38.08391222 78.75033486 40.125 91.75 C40.38132202 93.4055188 40.38132202 93.4055188 40.64282227 95.09448242 C40.80451904 96.11002197 40.96621582 97.12556152 41.1328125 98.171875 C41.27605957 99.0803418 41.41930664 99.98880859 41.56689453 100.92480469 C41.79832114 102.980897 41.79832114 102.980897 43 104 C43.04063832 105.66617115 43.042721 107.33388095 43 109 C39.04092723 108.52681647 35.08289307 108.04544382 31.125 107.5625 C29.43310547 107.36043945 29.43310547 107.36043945 27.70703125 107.15429688 C26.09248047 106.95610352 26.09248047 106.95610352 24.4453125 106.75390625 C23.45031738 106.63345947 22.45532227 106.5130127 21.43017578 106.38891602 C19 106 19 106 17 105 C14.23745217 95.48295041 13.34632766 85.36861605 12.12744141 75.56640625 C11.23410488 68.48510858 10.05876331 61.51954814 8.67578125 54.51953125 C8.0713319 51.37150314 7.57469106 48.23555376 7.125 45.0625 C6.1618407 38.48502751 4.78378959 32.00698691 3.4375 25.5 C1.67940352 16.9613957 0.29961383 8.72388232 0 0 Z " fill="#F7F1E9" transform="translate(606,74)"/>
<path d="M0 0 C1.98 0 3.96 0 6 0 C6 107.91 6 215.82 6 327 C4.02 327 2.04 327 0 327 C0 219.09 0 111.18 0 0 Z " fill="#252223" transform="translate(0,0)"/>
<path d="M0 0 C19.14 0 38.28 0 58 0 C59.27366488 8.91565415 59 17.99382928 59 27 C39.86 27 20.72 27 1 27 C0 19 0 19 0 0 Z " fill="#F9F3EB" transform="translate(342,214)"/>
<path d="M0 0 C10.2215298 0.4593946 20.04878609 2.78289017 30 5 C31.69852627 12.40072161 32.5777994 19.7636177 33.30224609 27.30981445 C33.68629257 31.26259469 34.11081569 35.12063834 35 39 C28.12119227 39.26456953 21.75359411 38.25097863 15 37 C13.93910156 36.80921875 12.87820313 36.6184375 11.78515625 36.421875 C9.18891893 35.95408449 6.59400405 35.47999288 4 35 C3.9498877 34.44127197 3.89977539 33.88254395 3.84814453 33.30688477 C3.61309799 30.72483727 3.36909441 28.14370726 3.125 25.5625 C3.04636719 24.68400391 2.96773437 23.80550781 2.88671875 22.90039062 C2.39762149 17.80249226 1.64848185 12.91696048 0.41015625 7.9453125 C-0.1520911 5.27865365 -0.13908625 2.71218194 0 0 Z " fill="#F7F1E9" transform="translate(633,206)"/>
<path d="M0 0 C1.32 0 2.64 0 4 0 C4 19.47 4 38.94 4 59 C1.03 59 -1.94 59 -5 59 C-5.26649036 38.92439264 -3.31393687 19.8191388 0 0 Z " fill="#2D2E30" transform="translate(227,103)"/>
<path d="M0 0 C1.32 0 2.64 0 4 0 C4 19.47 4 38.94 4 59 C3.67 59 3.34 59 3 59 C2.67 44.48 2.34 29.96 2 15 C1.67 18.63 1.34 22.26 1 26 C0.01 28.475 0.01 28.475 -1 31 C-1.25778944 33.24303385 -1.44262796 35.49538541 -1.5625 37.75 C-1.90035587 43.90035587 -1.90035587 43.90035587 -3 45 C-3.09900199 46.97712807 -3.12970773 48.95790038 -3.125 50.9375 C-3.12757813 52.01902344 -3.13015625 53.10054687 -3.1328125 54.21484375 C-3.19007789 56.95659663 -3.19007789 56.95659663 -2 59 C-2.99 59 -3.98 59 -5 59 C-5.26649036 38.92439264 -3.31393687 19.8191388 0 0 Z " fill="#5E6162" transform="translate(227,103)"/>
<path d="M0 0 C4.17371608 4.17371608 4.125 11.45873419 4.125 17.125 C4.08375 18.40375 4.0425 19.6825 4 21 C3.01 19.68 2.02 18.36 1 17 C0.34 17.33 -0.32 17.66 -1 18 C-1.40729228 20.32156597 -1.74438677 22.6568787 -2 25 C-2.99 24.67 -3.98 24.34 -5 24 C-4.34 24 -3.68 24 -3 24 C-3.66 16.74 -4.32 9.48 -5 2 C-4.34 2.66 -3.68 3.32 -3 4 C-2.01 4 -1.02 4 0 4 C0 2.68 0 1.36 0 0 Z " fill="#4C4A4C" transform="translate(633,215)"/>
<path d="M0 0 C0.33 0 0.66 0 1 0 C1.02473065 5.62336914 1.04287459 11.24670657 1.05493164 16.87011719 C1.05995841 18.78288321 1.06678077 20.6956454 1.07543945 22.60839844 C1.08757748 25.3587336 1.0932449 28.10901793 1.09765625 30.859375 C1.10281754 31.71368103 1.10797882 32.56798706 1.11329651 33.44818115 C1.11337204 34.24870911 1.11344757 35.04923706 1.11352539 35.87402344 C1.115746 36.57573669 1.11796661 37.27744995 1.12025452 38.00042725 C0.8680842 42.19347471 -0.65290316 46.04851593 -2 50 C-2.33 50 -2.66 50 -3 50 C-2.93941406 49.13503906 -2.87882812 48.27007812 -2.81640625 47.37890625 C-2.16233985 37.54778517 -1.72355802 27.71882552 -1.39282227 17.87133789 C-1.17568673 11.86518836 -0.74630339 5.96420791 0 0 Z " fill="#5C5B5F" transform="translate(302,129)"/>
<path d="M0 0 C1.11801987 3.38262575 0.84362128 5.70783016 0.1328125 9.171875 C-1.31230395 17.16251893 -1.69378572 25.15549202 -2.125 33.25 C-2.21164041 34.78519018 -2.29887621 36.32034688 -2.38671875 37.85546875 C-2.59799353 41.56995272 -2.80126925 45.28482125 -3 49 C-1.35 49 0.3 49 2 49 C2 49.33 2 49.66 2 50 C0.02 50 -1.96 50 -4 50 C-4.12030232 40.16194321 -4.00278537 30.33386472 -3.6875 20.5 C-3.66502197 19.49839844 -3.64254395 18.49679688 -3.61938477 17.46484375 C-3.38832281 11.16906053 -2.36257435 5.84757684 0 0 Z " fill="#B2B6B4" transform="translate(225,113)"/>
<path d="M0 0 C1.32 0.33 2.64 0.66 4 1 C3.34 1 2.68 1 2 1 C2 6.28 2 11.56 2 17 C1.34 17 0.68 17 0 17 C-0.33 19.64 -0.66 22.28 -1 25 C-1.33 25 -1.66 25 -2 25 C-2.10481309 19.23528001 -1.73291127 13.7147271 -1 8 C-0.90460938 7.22527344 -0.80921875 6.45054688 -0.7109375 5.65234375 C-0.47826451 3.76769254 -0.23975175 1.88376378 0 0 Z " fill="#5F6967" transform="translate(305,103)"/>
<path d="M0 0 C8.58 0 17.16 0 26 0 C26 1.98 26 3.96 26 6 C25.34 5.01 24.68 4.02 24 3 C21.19322542 1.98189278 18.42040705 1.82393817 15.453125 1.68359375 C14.60878906 1.64169922 13.76445312 1.59980469 12.89453125 1.55664062 C12.02183594 1.51732422 11.14914063 1.47800781 10.25 1.4375 C9.36183594 1.39431641 8.47367188 1.35113281 7.55859375 1.30664062 C5.37254037 1.20086385 3.18637911 1.09877454 1 1 C0.67 3.31 0.34 5.62 0 8 C-1.08174162 4.63458162 -0.92538169 3.70152678 0 0 Z " fill="#D4D3D0" transform="translate(151,73)"/>
<path d="M0 0 C0.33 0 0.66 0 1 0 C2.38810038 7.24896864 2.2734068 14.23495928 -1 21 C-1.33 21 -1.66 21 -2 21 C-1.85845864 18.43719792 -1.71191438 15.87484515 -1.5625 13.3125 C-1.52318359 12.59126953 -1.48386719 11.87003906 -1.44335938 11.12695312 C-1.21814322 7.33292718 -0.87160695 3.71348508 0 0 Z " fill="#D4CEC4" transform="translate(80,141)"/>
<path d="M0 0 C0.33 0 0.66 0 1 0 C1.19441368 2.2910905 1.38033135 4.58290337 1.5625 6.875 C1.66691406 8.15117188 1.77132812 9.42734375 1.87890625 10.7421875 C2 14 2 14 1 16 C0.34 16 -0.32 16 -1 16 C-1 17.65 -1 19.3 -1 21 C-1.33 21 -1.66 21 -2 21 C-2.28100502 13.83437211 -1.20443195 7.05453001 0 0 Z " fill="#515B57" transform="translate(175,85)"/>
<path d="M0 0 C2.12493141 -0.02693575 4.24995912 -0.04636628 6.375 -0.0625 C7.55835938 -0.07410156 8.74171875 -0.08570312 9.9609375 -0.09765625 C13 0 13 0 15 1 C14.67 2.32 14.34 3.64 14 5 C12.0625 4.625 12.0625 4.625 10 4 C9.67 3.34 9.34 2.68 9 2 C6.87423218 1.53348793 6.87423218 1.53348793 4.4375 1.375 C3.61121094 1.30023438 2.78492188 1.22546875 1.93359375 1.1484375 C1.29550781 1.09945312 0.65742187 1.05046875 0 1 C0 0.67 0 0.34 0 0 Z " fill="#C7C6C5" transform="translate(617,74)"/>
<path d="M0 0 C0.33 0 0.66 0 1 0 C1 6.93 1 13.86 1 21 C0.01 21 -0.98 21 -2 21 C-1.84660156 20.34644531 -1.69320312 19.69289062 -1.53515625 19.01953125 C-0.86620406 15.24507841 -0.64592703 11.51094004 -0.4375 7.6875 C-0.39431641 6.94693359 -0.35113281 6.20636719 -0.30664062 5.44335938 C-0.20129568 3.62908536 -0.10021684 1.8145645 0 0 Z " fill="#E5EFEB" transform="translate(97,222)"/>
<path d="M0 0 C0.33 0 0.66 0 1 0 C1.22281874 1.91503674 1.42771076 3.83216506 1.625 5.75 C1.74101562 6.81734375 1.85703125 7.8846875 1.9765625 8.984375 C2.00029475 12.03792399 1.61420985 13.46162421 0 16 C-0.33 16 -0.66 16 -1 16 C-0.67 10.72 -0.34 5.44 0 0 Z " fill="#5E5D60" transform="translate(300,163)"/>
<path d="M0 0 C0.66 0 1.32 0 2 0 C2.66 1.98 3.32 3.96 4 6 C3.01 6 2.02 6 1 6 C0.67 5.67 0.34 5.34 0 5 C-0.33 6.32 -0.66 7.64 -1 9 C-2.60031344 5.79937313 -1.03173691 3.27728194 0 0 Z " fill="#565959" transform="translate(524,166)"/>
<path d="M0 0 C2.475 0.495 2.475 0.495 5 1 C4.67 3.31 4.34 5.62 4 8 C3.34 7.67 2.68 7.34 2 7 C1.26924352 4.6859378 0.59861742 2.35171131 0 0 Z " fill="#4A4B4B" transform="translate(520,102)"/>
<path d="M0 0 C0.66 0 1.32 0 2 0 C2.66 2.31 3.32 4.62 4 7 C2.35 7 0.7 7 -1 7 C-0.67 4.69 -0.34 2.38 0 0 Z " fill="#E3E1E2" transform="translate(570,225)"/>
<path d="M0 0 C0.99 0 1.98 0 3 0 C2.67 2.97 2.34 5.94 2 9 C0.4375 7.3125 0.4375 7.3125 -1 5 C-0.6875 2.25 -0.6875 2.25 0 0 Z " fill="#D7DBD3" transform="translate(114,74)"/>
<path d="M0 0 C1.41687119 4.25061356 0.19320039 6.71851625 -1 11 C-1.66 10.34 -2.32 9.68 -3 9 C-3 7.68 -3 6.36 -3 5 C-2.34 5 -1.68 5 -1 5 C-0.67 3.35 -0.34 1.7 0 0 Z " fill="#706E69" transform="translate(446,103)"/>
<path d="M0 0 C0.99 0 1.98 0 3 0 C3 1.98 3 3.96 3 6 C2.01 6.33 1.02 6.66 0 7 C0 4.69 0 2.38 0 0 Z " fill="#3F4A4B" transform="translate(227,104)"/>
<path d="M0 0 C0.82638376 2.89234315 1 4.88742431 1 8 C0.34 8 -0.32 8 -1 8 C-1.66 9.32 -2.32 10.64 -3 12 C-2.40075776 7.80530429 -1.42500059 3.99000166 0 0 Z " fill="#555F5B" transform="translate(474,92)"/>
<path d="M0 0 C1.3609623 2.7219246 0.70366248 4.1831957 0.0625 7.125 C-0.13214844 8.03507813 -0.32679688 8.94515625 -0.52734375 9.8828125 C-0.68332031 10.58148438 -0.83929688 11.28015625 -1 12 C-1.33 12 -1.66 12 -2 12 C-3.35384615 4.61538462 -3.35384615 4.61538462 -1.5625 1.5 C-1.046875 1.005 -0.53125 0.51 0 0 Z " fill="#413D3C" transform="translate(413,196)"/>
<path d="M0 0 C0.33 0 0.66 0 1 0 C1.36923077 7.50769231 1.36923077 7.50769231 -0.5 10 C-0.995 10.33 -1.49 10.66 -2 11 C-1.125 3.375 -1.125 3.375 0 0 Z " fill="#666666" transform="translate(547,112)"/>
<path d="M0 0 C0.66 0.33 1.32 0.66 2 1 C1.67 4.3 1.34 7.6 1 11 C0.67 11 0.34 11 0 11 C-0.19491452 9.54263913 -0.38069358 8.08405407 -0.5625 6.625 C-0.66691406 5.81289062 -0.77132813 5.00078125 -0.87890625 4.1640625 C-1 2 -1 2 0 0 Z " fill="#484241" transform="translate(498,168)"/>
<path d="M0 0 C0.33 0 0.66 0 1 0 C2.0070238 5.03511899 1.97387813 8.23947038 0 13 C-0.33 13 -0.66 13 -1 13 C-1.07654536 8.48382401 -1.10228696 4.40914783 0 0 Z " fill="#C1BAB1" transform="translate(80,141)"/>
<path d="M0 0 C0.33 0 0.66 0 1 0 C1.1875 3.375 1.1875 3.375 1 7 C0.01 7.66 -0.98 8.32 -2 9 C-1.125 2.25 -1.125 2.25 0 0 Z " fill="#595C5A" transform="translate(469,110)"/>
<path d="M0 0 C0.33 0 0.66 0 1 0 C2.19876651 5.44893869 1.91360308 8.22169095 -1 13 C-2.07310858 9.72814447 -1.89263102 7.57052408 -1.0625 4.25 C-0.86785156 3.45078125 -0.67320313 2.6515625 -0.47265625 1.828125 C-0.31667969 1.22484375 -0.16070312 0.6215625 0 0 Z " fill="#C4BFBB" transform="translate(91,75)"/>
<path d="M0 0 C2.31 0 4.62 0 7 0 C6.34 2.31 5.68 4.62 5 7 C4.67 7 4.34 7 4 7 C3.896875 6.21625 3.79375 5.4325 3.6875 4.625 C3.22404978 1.66954819 3.22404978 1.66954819 0 0 Z " fill="#D0D1CE" transform="translate(473,74)"/>
</svg>
